<?xml version="1.0" encoding="UTF-8" standalone="no"?>
<svg
   viewBox="0 -256 10 10"
   id="svg3025"
   version="1.1"
   inkscape:version="1.2.1 (9c6d41e410, 2022-07-14)"
   width="10"
   height="10"
   sodipodi:docname="ext.svg"
   xmlns:inkscape="http://www.inkscape.org/namespaces/inkscape"
   xmlns:sodipodi="http://sodipodi.sourceforge.net/DTD/sodipodi-0.dtd"
   xmlns="http://www.w3.org/2000/svg"
   xmlns:svg="http://www.w3.org/2000/svg"
   xmlns:rdf="http://www.w3.org/1999/02/22-rdf-syntax-ns#"
   xmlns:cc="http://creativecommons.org/ns#"
   xmlns:dc="http://purl.org/dc/elements/1.1/">
  <metadata
     id="metadata3035">
    <rdf:RDF>
      <cc:Work
         rdf:about="">
        <dc:format>image/svg+xml</dc:format>
        <dc:type
           rdf:resource="http://purl.org/dc/dcmitype/StillImage" />
      </cc:Work>
    </rdf:RDF>
  </metadata>
  <defs
     id="defs3033" />
  <sodipodi:namedview
     pagecolor="#ffffff"
     bordercolor="#666666"
     borderopacity="1"
     objecttolerance="10"
     gridtolerance="10"
     guidetolerance="10"
     inkscape:pageopacity="0"
     inkscape:pageshadow="2"
     inkscape:window-width="1920"
     inkscape:window-height="1010"
     id="namedview3031"
     showgrid="false"
     inkscape:zoom="33.714286"
     inkscape:cx="5.5911017"
     inkscape:cy="4.7309322"
     inkscape:window-x="1913"
     inkscape:window-y="-7"
     inkscape:window-maximized="1"
     inkscape:current-layer="svg3025"
     inkscape:showpageshadow="2"
     inkscape:pagecheckerboard="0"
     inkscape:deskcolor="#d1d1d1" />
  <g
     transform="matrix(0.00461309,0,0,-0.00461309,1.5919962,-248.3628)"
     id="g3027">
    <path
       d="m 1408,608 v -320 q 0,-119 -84.5,-203.5 -84.5,-84.5 -203.5,-84.5 h -832 q -119,0 -203.5,84.5 -84.5,84.5 -84.5,203.5 v 832 q 0,119 84.5,203.5 84.5,84.5 203.5,84.5 h 704 q 14,0 23,-9 9,-9 9,-23 v -64 q 0,-14 -9,-23 -9,-9 -23,-9 h -704 q -66,0 -113,-47 -47,-47 -47,-113 v -832 q 0,-66 47,-113 47,-47 113,-47 h 832 q 66,0 113,47 47,47 47,113 v 320 q 0,14 9,23 9,9 23,9 h 64 q 14,0 23,-9 9,-9 9,-23 z m 384,864 v -512 q 0,-26 -19,-45 -19,-19 -45,-19 -26,0 -45,19 l -176,176 -652,-652 q -10,-10 -23,-10 -13,0 -23,10 l -114,114 q -10,10 -10,23 0,13 10,23 l 652,652 -176,176 q -19,19 -19,45 0,26 19,45 19,19 45,19 h 512 q 26,0 45,-19 19,-19 19,-45 z"
       id="path3029"
       inkscape:connector-curvature="0"
       style="fill:currentColor" />
  </g>
</svg>
