<?xml version="1.0" encoding="UTF-8" standalone="no"?>
<svg
   xmlns:dc="http://purl.org/dc/elements/1.1/"
   xmlns:cc="http://creativecommons.org/ns#"
   xmlns:rdf="http://www.w3.org/1999/02/22-rdf-syntax-ns#"
   xmlns:svg="http://www.w3.org/2000/svg"
   xmlns="http://www.w3.org/2000/svg"
   xmlns:sodipodi="http://sodipodi.sourceforge.net/DTD/sodipodi-0.dtd"
   xmlns:inkscape="http://www.inkscape.org/namespaces/inkscape"
   version="1.1"
   viewBox="0 0 80 65"
   stroke-miterlimit="10"
   id="svg8378"
   inkscape:version="0.91 r13725"
   sodipodi:docname="Json-Flow.svg"
   width="80"
   height="65"
   style="fill:none;stroke:none;stroke-linecap:square;stroke-miterlimit:10">
  <metadata
     id="metadata8429">
    <rdf:RDF>
      <cc:Work
         rdf:about="">
        <dc:format>image/svg+xml</dc:format>
        <dc:type
           rdf:resource="http://purl.org/dc/dcmitype/StillImage" />
        <dc:title />
      </cc:Work>
    </rdf:RDF>
  </metadata>
  <defs
     id="defs8427">
    <defs
       id="defs8399">
      <filter
         filterUnits="userSpaceOnUse"
         id="shadowFilter-p.1">
        <feGaussianBlur
           id="feGaussianBlur8402"
           result="blur"
           stdDeviation="4.5"
           in="SourceAlpha" />
        <feComponentTransfer
           id="feComponentTransfer8404"
           in="blur"
           style="color-interpolation-filters:sRGB">
          <feFuncR
             id="feFuncR8406"
             intercept="0.0"
             slope="0"
             type="linear" />
          <feFuncG
             id="feFuncG8408"
             intercept="0.0"
             slope="0"
             type="linear" />
          <feFuncB
             id="feFuncB8410"
             intercept="0.0"
             slope="0"
             type="linear" />
          <feFuncA
             id="feFuncA8412"
             intercept="0"
             slope="0.24"
             type="linear" />
        </feComponentTransfer>
      </filter>
    </defs>
    <filter
       style="color-interpolation-filters:sRGB"
       inkscape:label="Drop Shadow"
       id="filter12944">
      <feFlood
         flood-opacity="0.498039"
         flood-color="rgb(0,0,0)"
         result="flood"
         id="feFlood12946" />
      <feComposite
         in="flood"
         in2="SourceGraphic"
         operator="in"
         result="composite1"
         id="feComposite12948" />
      <feGaussianBlur
         in="composite1"
         stdDeviation="3"
         result="blur"
         id="feGaussianBlur12950" />
      <feOffset
         dx="6"
         dy="6"
         result="offset"
         id="feOffset12952" />
      <feComposite
         in="SourceGraphic"
         in2="offset"
         operator="over"
         result="composite2"
         id="feComposite12954" />
    </filter>
  </defs>
  <sodipodi:namedview
     pagecolor="#ffffff"
     bordercolor="#666666"
     borderopacity="1"
     objecttolerance="10"
     gridtolerance="10"
     guidetolerance="10"
     inkscape:pageopacity="0"
     inkscape:pageshadow="2"
     inkscape:window-width="2560"
     inkscape:window-height="1361"
     id="namedview8425"
     showgrid="false"
     inkscape:zoom="11.3"
     inkscape:cx="32.198693"
     inkscape:cy="49.064296"
     inkscape:window-x="-9"
     inkscape:window-y="-9"
     inkscape:window-maximized="1"
     inkscape:current-layer="svg8378" />
  <clipPath
     id="p.0">
    <path
       d="m 0,0 960,0 0,540 -960,0 0,-540 z"
       id="path8381"
       inkscape:connector-curvature="0"
       style="clip-rule:nonzero" />
  </clipPath>
  <path
     style="fill:#000000;fill-opacity:0;fill-rule:evenodd"
     inkscape:connector-curvature="0"
     id="path8385"
     d="m 0,-475 960,0 0,540 -960,0 z" />
  <path
     style="fill:#0000c9;fill-rule:evenodd"
     inkscape:connector-curvature="0"
     id="path8387"
     d="m 25.278584,20.570458 44.756212,0 9.415012,9.509623 0,34.269149 -54.171224,0 z" />
  <path
     style="fill:#000000;fill-opacity:0;fill-rule:evenodd"
     inkscape:connector-curvature="0"
     id="path8389"
     d="m 23.374707,20.570458 56.99727,0 0,40.788388 -56.99727,0 z" />
  <g
     id="p.1"
     style="filter:url(#filter12944)"
     transform="matrix(0.32867117,0,0,0.3319742,-42.301727,-21.787185)">
    <path
       style="fill:#ffffff;fill-rule:evenodd"
       inkscape:connector-curvature="0"
       id="path8415"
       d="m 131.82677,121.20998 0,0 c 0,-29.223259 23.69014,-52.91339 52.91339,-52.91339 l 0,0 c 14.03351,0 27.49223,5.574791 37.41542,15.497978 9.92317,9.92318 15.49797,23.381902 15.49797,37.415412 l 0,0 c 0,29.22325 -23.69014,52.91338 -52.91339,52.91338 l 0,0 c -29.22325,0 -52.91339,-23.69013 -52.91339,-52.91338 z" />
  </g>
  <path
     style="fill:#000000;fill-opacity:0;fill-rule:evenodd"
     inkscape:connector-curvature="0"
     id="path8417"
     d="m 2.1042463,-3.0397898 49.2333927,0 0,20.2634928 -49.2333927,0 z" />
  <path
     style="fill:#ff0000;fill-rule:nonzero"
     inkscape:connector-curvature="0"
     id="path8419"
     d="m 12.272511,7.960587 -0.385164,1.8621694 -1.782012,0 -1.561188,7.5472246 -2.5163887,0 1.5611881,-7.5472246 -1.4019896,0 0.3851632,-1.8621694 1.4019863,0 0.2002856,-0.9648 q 0.2465034,-1.1878436 0.4673277,-1.6028113 0.2978582,-0.5705807 0.8884409,-0.9025549 0.5957165,-0.3319742 1.5509175,-0.3319742 1.155483,0 2.439354,0.425342 l -0.493006,1.8154839 q -0.903846,-0.3060404 -1.463613,-0.3060404 -0.431381,0 -0.641937,0.2749178 -0.138657,0.1763613 -0.287587,0.9284887 l -0.143794,0.6639484 1.782016,0 z m 1.298566,0 2.352053,0 -0.380026,1.8258581 q 1.314685,-2.0489016 2.850194,-2.0489016 0.544362,0 1.165757,0.2749144 l -0.960338,2.0852131 q -0.344076,-0.1244904 -0.729239,-0.1244904 -0.652205,0 -1.324955,0.4979614 -0.667614,0.492776 -1.04764,1.322708 -0.374889,0.829935 -0.744644,2.624671 l -0.611124,2.95146 -2.516389,0 1.946351,-9.409394 z m 7.869016,-3.5790969 2.516388,0 -0.472464,2.303071 -2.521526,0 0.477602,-2.303071 z m -0.73951,3.5790969 2.516388,0 -1.946351,9.409394 -2.516389,0 1.946352,-9.409394 z" />
  <path
     style="fill:#000000;fill-opacity:0;fill-rule:evenodd"
     inkscape:connector-curvature="0"
     id="path8421"
     d="m 5.9913712,11.931287 49.2333838,0 0,20.263493 -49.2333838,0 z" />
  <path
     style="fill:#ff0000;fill-rule:nonzero"
     inkscape:connector-curvature="0"
     id="path8423"
     d="m 16.159635,22.931667 -0.385163,1.86217 -1.782012,0 -1.561188,7.547224 -2.5163887,0 1.5611877,-7.547224 -1.401989,0 0.385163,-1.86217 1.401986,0 0.200286,-0.9648 q 0.246503,-1.187843 0.467328,-1.602814 0.297858,-0.570581 0.88844,-0.902555 0.595717,-0.331974 1.550917,-0.331974 1.155483,0 2.439355,0.425342 l -0.493007,1.815487 q -0.903845,-0.306041 -1.463612,-0.306041 -0.431381,0 -0.641937,0.274918 -0.138657,0.176362 -0.287588,0.928489 l -0.143793,0.663948 1.782015,0 z m -0.524532,9.409394 2.690995,-12.988494 2.506117,0 -2.680724,12.988494 -2.516388,0 z m 5.37612,-3.905882 q 0,-2.614297 1.458478,-4.170426 1.463612,-1.556129 3.836207,-1.556129 2.064466,0 3.219952,1.151535 1.16062,1.146347 1.16062,3.086321 0,2.282323 -1.448207,3.952568 -1.448207,1.66506 -3.877294,1.66506 -1.314685,0 -2.331511,-0.529084 -1.016827,-0.534273 -1.520104,-1.509447 -0.498141,-0.975174 -0.498141,-2.090398 z m 7.174274,-1.815484 q 0,-0.907744 -0.52382,-1.452387 -0.518683,-0.544647 -1.345498,-0.544647 -0.81654,0 -1.448207,0.513524 -0.631663,0.508336 -0.980876,1.478321 -0.349213,0.969989 -0.349213,1.784361 0,1.011486 0.539224,1.608 0.544362,0.591329 1.371177,0.591329 1.037368,0 1.735794,-0.897366 1.001419,-1.265651 1.001419,-3.081135 z" />
  <path
     style="fill:#efefef;fill-rule:nonzero"
     inkscape:connector-curvature="0"
     id="path35"
     d="m 34.999654,27.926243 2.41875,0 0,7.610623 q 0,1.490627 -0.264377,2.295 -0.354373,1.04625 -1.2825,1.681877 -0.9225,0.635623 -2.44125,0.635623 -1.7775,0 -2.739373,-0.995623 -0.961877,-0.995627 -0.9675,-2.919377 l 2.289373,-0.264373 q 0.03937,1.035 0.30375,1.456873 0.39375,0.6525 1.198127,0.6525 0.81,0 1.1475,-0.46125 0.3375,-0.466873 0.3375,-1.929373 l 0,-7.7625 z m 4.38565,8.11125 2.3625,-0.230627 q 0.21375,1.186877 0.86625,1.74375 0.6525,0.556877 1.755,0.556877 1.175623,0 1.76625,-0.495 0.59625,-0.495 0.59625,-1.15875 0,-0.4275 -0.253127,-0.725627 -0.2475,-0.298123 -0.86625,-0.523123 -0.4275,-0.14625 -1.94625,-0.523127 -1.951873,-0.48375 -2.739373,-1.186873 -1.108127,-0.995627 -1.108127,-2.424377 0,-0.916873 0.5175,-1.715623 0.523127,-0.79875 1.501877,-1.215 0.984373,-0.421877 2.368123,-0.421877 2.266877,0 3.40875,0.995627 1.141877,0.99 1.20375,2.64375 l -2.43,0.106873 q -0.1575,-0.9225 -0.669373,-1.3275 -0.511877,-0.410623 -1.535627,-0.410623 -1.0575,0 -1.659373,0.43875 -0.3825,0.275623 -0.3825,0.7425 0,0.4275 0.36,0.73125 0.46125,0.388123 2.2275,0.804373 1.771873,0.41625 2.62125,0.86625 0.849373,0.444377 1.3275,1.220627 0.48375,0.77625 0.48375,1.9125 0,1.035 -0.57375,1.940623 -0.57375,0.9 -1.625627,1.33875 -1.051873,0.43875 -2.615623,0.43875 -2.278127,0 -3.504377,-1.051873 -1.220623,-1.0575 -1.456873,-3.07125 z m 11.326716,-2.030627 q 0,-1.83375 0.545627,-3.0825 0.410623,-0.916873 1.119373,-1.648123 0.714377,-0.73125 1.558127,-1.08 1.125,-0.478127 2.5875,-0.478127 2.660623,0 4.2525,1.648127 1.5975,1.648123 1.5975,4.584373 0,2.91375 -1.58625,4.55625 -1.580627,1.6425 -4.23,1.6425 -2.6775,0 -4.26375,-1.63125 -1.580627,-1.636873 -1.580627,-4.51125 z m 2.4975,-0.07875 q 0,2.041877 0.945,3.099377 0.945,1.051873 2.39625,1.051873 1.45125,0 2.379377,-1.04625 0.93375,-1.04625 0.93375,-3.13875 0,-2.064373 -0.905627,-3.0825 -0.905623,-1.018123 -2.4075,-1.018123 -1.501873,0 -2.424373,1.029373 -0.916877,1.029377 -0.916877,3.105 z m 11.084666,6.01875 0,-12.020623 2.3625,0 4.916239,8.026873 0,-8.026873 2.255627,0 0,12.020623 -2.435627,0 -4.843112,-7.84125 0,7.84125 -2.255627,0 z" />
  <path
     style="fill:#efefef;fill-rule:nonzero"
     inkscape:connector-curvature="0"
     id="path37"
     d="m 30.792988,59.048034 0,-13.741873 9.41625,0 0,2.323123 -6.643127,0 0,3.25125 5.7375,0 0,2.32875 -5.7375,0 0,5.83875 -2.773123,0 z m 11.687608,0 0,-13.741873 2.6325,0 0,13.741873 -2.6325,0 z m 5.333854,-11.30625 0,-2.435623 2.6325,0 0,2.435623 -2.6325,0 z m 0,11.30625 0,-9.95625 2.6325,0 0,9.95625 -2.6325,0 z m 4.726357,-5.11875 q 0,-1.310623 0.646877,-2.536873 0.646873,-1.231877 1.828123,-1.87875 1.18687,-0.646877 2.64937,-0.646877 2.26125,0 3.70125,1.468127 1.445627,1.468123 1.445627,3.706873 0,2.26125 -1.456877,3.74625 -1.456873,1.485 -3.6675,1.485 -1.3725,0 -2.61562,-0.61875 -1.2375,-0.61875 -1.884373,-1.81125 -0.646877,-1.198123 -0.646877,-2.91375 z m 2.7,0.140627 q 0,1.479373 0.70312,2.266873 0.703127,0.7875 1.7325,0.7875 1.029377,0 1.726877,-0.7875 0.703123,-0.7875 0.703123,-2.28375 0,-1.4625 -0.703123,-2.25 -0.6975,-0.7875 -1.726877,-0.7875 -1.029373,0 -1.7325,0.7875 -0.70312,0.7875 -0.70312,2.266877 z m 8.368852,4.978123 3.58875,-5.13 -3.436873,-4.82625 3.211873,0 1.76625,2.739377 1.85625,-2.739377 3.088127,0 -3.369377,4.71375 3.67875,5.2425 -3.22875,0 -2.025,-3.0825 -2.0475,3.0825 -3.0825,0 z" />
</svg>
