<?xml version="1.0" encoding="UTF-8" standalone="no"?>
<svg
   xmlns:dc="http://purl.org/dc/elements/1.1/"
   xmlns:cc="http://creativecommons.org/ns#"
   xmlns:rdf="http://www.w3.org/1999/02/22-rdf-syntax-ns#"
   xmlns:svg="http://www.w3.org/2000/svg"
   xmlns="http://www.w3.org/2000/svg"
   xmlns:sodipodi="http://sodipodi.sourceforge.net/DTD/sodipodi-0.dtd"
   xmlns:inkscape="http://www.inkscape.org/namespaces/inkscape"
   version="1.1"
   viewBox="0 0 80 80"
   stroke-miterlimit="10"
   id="svg8378"
   inkscape:version="0.91 r13725"
   sodipodi:docname="Json-Fliox-schema-80x65.svg"
   width="80"
   height="80"
   style="fill:none;stroke:none;stroke-linecap:square;stroke-miterlimit:10">
  <metadata
     id="metadata8429">
    <rdf:RDF>
      <cc:Work
         rdf:about="">
        <dc:format>image/svg+xml</dc:format>
        <dc:type
           rdf:resource="http://purl.org/dc/dcmitype/StillImage" />
        <dc:title></dc:title>
      </cc:Work>
    </rdf:RDF>
  </metadata>
  <defs
     id="defs8427">
    <defs
       id="defs8399">
      <filter
         filterUnits="userSpaceOnUse"
         id="shadowFilter-p.1">
        <feGaussianBlur
           id="feGaussianBlur8402"
           result="blur"
           stdDeviation="4.5"
           in="SourceAlpha" />
        <feComponentTransfer
           id="feComponentTransfer8404"
           in="blur"
           style="color-interpolation-filters:sRGB">
          <feFuncR
             id="feFuncR8406"
             intercept="0.0"
             slope="0"
             type="linear" />
          <feFuncG
             id="feFuncG8408"
             intercept="0.0"
             slope="0"
             type="linear" />
          <feFuncB
             id="feFuncB8410"
             intercept="0.0"
             slope="0"
             type="linear" />
          <feFuncA
             id="feFuncA8412"
             intercept="0"
             slope="0.24"
             type="linear" />
        </feComponentTransfer>
      </filter>
    </defs>
    <filter
       style="color-interpolation-filters:sRGB"
       inkscape:label="Drop Shadow"
       id="filter12944">
      <feFlood
         flood-opacity="0.498039"
         flood-color="rgb(0,0,0)"
         result="flood"
         id="feFlood12946" />
      <feComposite
         in="flood"
         in2="SourceGraphic"
         operator="in"
         result="composite1"
         id="feComposite12948" />
      <feGaussianBlur
         in="composite1"
         stdDeviation="3"
         result="blur"
         id="feGaussianBlur12950" />
      <feOffset
         dx="6"
         dy="6"
         result="offset"
         id="feOffset12952" />
      <feComposite
         in="SourceGraphic"
         in2="offset"
         operator="over"
         result="composite2"
         id="feComposite12954" />
    </filter>
    <filter
       style="color-interpolation-filters:sRGB"
       inkscape:label="Drop Shadow"
       id="filter12944-1">
      <feFlood
         flood-opacity="0.498039"
         flood-color="rgb(0,0,0)"
         result="flood"
         id="feFlood12946-9" />
      <feComposite
         in="flood"
         in2="SourceGraphic"
         operator="in"
         result="composite1"
         id="feComposite12948-3" />
      <feGaussianBlur
         in="composite1"
         stdDeviation="3"
         result="blur"
         id="feGaussianBlur12950-1" />
      <feOffset
         dx="6"
         dy="6"
         result="offset"
         id="feOffset12952-7" />
      <feComposite
         in="SourceGraphic"
         in2="offset"
         operator="over"
         result="composite2"
         id="feComposite12954-7" />
    </filter>
  </defs>
  <sodipodi:namedview
     pagecolor="#ffffff"
     bordercolor="#666666"
     borderopacity="1"
     objecttolerance="10"
     gridtolerance="10"
     guidetolerance="10"
     inkscape:pageopacity="0"
     inkscape:pageshadow="2"
     inkscape:window-width="2560"
     inkscape:window-height="1346"
     id="namedview8425"
     showgrid="false"
     inkscape:zoom="11.3"
     inkscape:cx="36.660888"
     inkscape:cy="34.985446"
     inkscape:window-x="-11"
     inkscape:window-y="-11"
     inkscape:window-maximized="1"
     inkscape:current-layer="svg8378" />
  <clipPath
     id="p.0">
    <path
       d="m 0,0 960,0 0,540 -960,0 0,-540 z"
       id="path8381"
       inkscape:connector-curvature="0"
       style="clip-rule:nonzero" />
  </clipPath>
  <rect
     style="opacity:1;fill:#ffffff;fill-opacity:1;fill-rule:nonzero;stroke:none;stroke-width:23.39999962;stroke-miterlimit:4;stroke-dasharray:none;stroke-dashoffset:0;stroke-opacity:1"
     id="rect12777"
     width="71.592918"
     height="49.646019"
     x="4.0707965"
     y="20.442476"
     rx="7.2530174"
     ry="7.2602763" />
  <rect
     style="opacity:1;fill:#ffffff;fill-opacity:1;fill-rule:nonzero;stroke:none;stroke-width:23.39999962;stroke-linecap:square;stroke-miterlimit:4;stroke-dasharray:none;stroke-dashoffset:0;stroke-opacity:1"
     id="rect12747-9"
     width="49.951397"
     height="19.397623"
     x="14.867258"
     y="4.3925509"
     rx="2.873656"
     ry="2.7793078" />
  <path
     style="fill:#000000;fill-opacity:0;fill-rule:evenodd"
     inkscape:connector-curvature="0"
     id="path8385"
     d="m 0,-460 960,0 0,540 -960,0 z" />
  <path
     style="fill:#000000;fill-opacity:0;fill-rule:evenodd"
     inkscape:connector-curvature="0"
     id="path8417"
     d="m -1.4355767,15.323042 54.4030817,0 0,22.391235 -54.4030817,0 z" />
  <path
     style="fill:#ffffff;fill-opacity:0;fill-rule:evenodd"
     inkscape:connector-curvature="0"
     id="path8421"
     d="m 1.0995278,21.109465 54.4030712,0 0,22.391235 -54.4030712,0 z" />
  <text
     xml:space="preserve"
     style="font-style:normal;font-variant:normal;font-weight:normal;font-stretch:normal;font-size:54.043293px;line-height:125%;font-family:'Miriam Libre';-inkscape-font-specification:'Miriam Libre';letter-spacing:0px;word-spacing:0px;fill:#4d4d4d;fill-opacity:1;stroke:none;stroke-width:1px;stroke-linecap:butt;stroke-linejoin:miter;stroke-opacity:1"
     x="-2.9025826"
     y="63.296978"
     id="text12629"
     sodipodi:linespacing="125%"
     transform="scale(1.0246863,0.97590844)"><tspan
       sodipodi:role="line"
       id="tspan12631"
       x="-2.9025826"
       y="63.296978"
       style="font-style:normal;font-variant:normal;font-weight:normal;font-stretch:normal;font-family:'Miriam Libre';-inkscape-font-specification:'Miriam Libre';fill:#4d4d4d">{</tspan></text>
  <text
     xml:space="preserve"
     style="font-style:normal;font-variant:normal;font-weight:normal;font-stretch:normal;font-size:54.043293px;line-height:125%;font-family:'Miriam Libre';-inkscape-font-specification:'Miriam Libre';letter-spacing:0px;word-spacing:0px;fill:#4d4d4d;fill-opacity:1;stroke:none;stroke-width:1px;stroke-linecap:butt;stroke-linejoin:miter;stroke-miterlimit:10;stroke-opacity:1"
     x="61.617645"
     y="63.13596"
     id="text12629-5"
     sodipodi:linespacing="125%"
     transform="scale(1.0246863,0.97590844)"><tspan
       sodipodi:role="line"
       id="tspan12631-7"
       x="61.617645"
       y="63.13596"
       style="font-style:normal;font-variant:normal;font-weight:normal;font-stretch:normal;font-family:'Miriam Libre';-inkscape-font-specification:'Miriam Libre';fill:#4d4d4d">}</tspan></text>
  <text
     xml:space="preserve"
     style="font-style:normal;font-weight:normal;font-size:40px;line-height:125%;font-family:sans-serif;letter-spacing:0px;word-spacing:0px;fill:#000000;fill-opacity:1;stroke:none;stroke-width:1px;stroke-linecap:butt;stroke-linejoin:miter;stroke-opacity:1"
     x="-12.123894"
     y="16.460176"
     id="text12733"
     sodipodi:linespacing="125%"><tspan
       sodipodi:role="line"
       id="tspan12735"
       x="-12.123894"
       y="16.460176"
       style="font-style:normal;font-variant:normal;font-weight:normal;font-stretch:normal;font-family:Arial;-inkscape-font-specification:Arial" /></text>
  <path
     style="fill:#000000;fill-opacity:0;fill-rule:evenodd"
     inkscape:connector-curvature="0"
     id="path75"
     d="m -33.334133,-17.791514 47.586173,0 0,28.768868 -47.586173,0 z" />
  <rect
     style="opacity:1;fill:#008000;fill-opacity:1;fill-rule:nonzero;stroke:none;stroke-width:23.39999962;stroke-miterlimit:4;stroke-dasharray:none;stroke-dashoffset:0;stroke-opacity:1"
     id="rect12747"
     width="43.00885"
     height="16.701624"
     x="18.314138"
     y="7.293293"
     rx="2.4742579"
     ry="2.3930228" />
  <path
     style="fill:#ffffff;fill-rule:nonzero"
     inkscape:connector-curvature="0"
     id="path77"
     d="m 22.329869,15.67123 q 0,-1.819838 0.541484,-3.059114 0.407512,-0.909921 1.110885,-1.635623 0.708953,-0.725703 1.546301,-1.0718062 1.116465,-0.474496 2.567869,-0.474496 2.640441,0 4.220237,1.6356192 1.58538,1.635622 1.58538,4.549596 0,2.891644 -1.574216,4.521682 -1.56863,1.63004 -4.197907,1.63004 -2.657185,0 -4.231402,-1.618875 -1.568631,-1.624457 -1.568631,-4.477024 z m 2.478552,-0.07815 q 0,2.026383 0.93783,3.075859 0.937831,1.043897 2.37807,1.043897 1.440241,0 2.361322,-1.038312 0.926666,-1.038312 0.926666,-3.114938 0,-2.048714 -0.898753,-3.059114 -0.898756,-1.010402 -2.389235,-1.010402 -1.490482,0 -2.405983,1.021567 -0.909917,1.021564 -0.909917,3.081444 z m 21.735379,5.973087 -2.623691,0 -1.038312,-2.713009 -4.772889,0 -0.98249,2.713009 -2.556704,0 4.650078,-11.9294282 2.54554,0 4.778468,11.9294282 z m -4.437949,-4.722646 -1.641203,-4.426785 -1.613289,4.426785 3.254492,0 z m 5.104434,0.842929 2.344577,-0.228874 q 0.212128,1.17787 0.859678,1.730521 0.647549,0.552649 1.741685,0.552649 1.166707,0 1.752849,-0.491245 0.591727,-0.491245 0.591727,-1.149958 0,-0.424257 -0.251203,-0.720119 -0.245622,-0.295865 -0.859678,-0.519158 -0.424256,-0.14514 -1.931484,-0.519154 -1.937069,-0.48008 -2.718594,-1.177872 -1.099716,-0.98807 -1.099716,-2.40598 0,-0.909921 0.513574,-1.702611 0.519154,-0.79269 1.490478,-1.2057822 0.976909,-0.418673 2.350161,-0.418673 2.249675,0 3.382889,0.9880702 1.13321,0.982489 1.194617,2.623693 l -2.411564,0.106065 q -0.156305,-0.9155 -0.664298,-1.317428 -0.50799,-0.407511 -1.523973,-0.407511 -1.049477,0 -1.646787,0.435421 -0.379598,0.273536 -0.379598,0.736867 0,0.424256 0.357267,0.725702 0.457752,0.385182 2.210602,0.798273 1.758433,0.413093 2.601363,0.859678 0.842932,0.441003 1.317429,1.211364 0.480079,0.770361 0.480079,1.897989 0,1.027148 -0.569397,1.925905 -0.569397,0.893171 -1.613291,1.328593 -1.043896,0.43542 -2.595781,0.43542 -2.26084,0 -3.477786,-1.043896 -1.211367,-1.049476 -1.445825,-3.047949 z" />
  <rect
     style="opacity:1;fill:#0000c9;fill-opacity:1;fill-rule:nonzero;stroke:none;stroke-width:23.39999962;stroke-miterlimit:4;stroke-dasharray:none;stroke-dashoffset:0;stroke-opacity:1"
     id="rect12767"
     width="57.079647"
     height="38.318584"
     x="11.769914"
     y="26.814159"
     ry="2.9433005" />
  <path
     style="fill:#efefef;fill-rule:nonzero;stroke:none;stroke-linecap:square;stroke-miterlimit:10"
     inkscape:connector-curvature="0"
     id="path35"
     d="m 23.583726,30.271376 2.41875,0 0,7.610623 q 0,1.490627 -0.264377,2.295 -0.354373,1.04625 -1.2825,1.681877 -0.9225,0.635623 -2.44125,0.635623 -1.7775,0 -2.739373,-0.995623 -0.961877,-0.995627 -0.9675,-2.919377 l 2.289373,-0.264373 q 0.03937,1.035 0.30375,1.456873 0.39375,0.6525 1.198127,0.6525 0.81,0 1.1475,-0.46125 0.3375,-0.466873 0.3375,-1.929373 l 0,-7.7625 z m 4.38565,8.11125 2.3625,-0.230627 q 0.21375,1.186877 0.86625,1.74375 0.6525,0.556877 1.755001,0.556877 1.17562,0 1.76625,-0.495 0.59625,-0.495 0.59625,-1.15875 0,-0.4275 -0.25313,-0.725627 -0.2475,-0.298123 -0.86625,-0.523123 -0.4275,-0.14625 -1.94625,-0.523127 -1.951871,-0.48375 -2.739371,-1.186873 -1.108127,-0.995627 -1.108127,-2.424377 0,-0.916873 0.5175,-1.715623 0.523127,-0.79875 1.501877,-1.215 0.984373,-0.421877 2.368121,-0.421877 2.26688,0 3.40875,0.995627 1.14188,0.99 1.20375,2.64375 l -2.43,0.106873 q -0.1575,-0.9225 -0.66937,-1.3275 -0.51188,-0.410623 -1.53563,-0.410623 -1.057498,0 -1.659371,0.43875 -0.3825,0.275623 -0.3825,0.7425 0,0.4275 0.36,0.73125 0.46125,0.388123 2.227501,0.804373 1.77187,0.41625 2.62125,0.86625 0.84937,0.444377 1.3275,1.220627 0.48375,0.77625 0.48375,1.9125 0,1.035 -0.57375,1.940623 -0.57375,0.9 -1.62563,1.33875 -1.05187,0.43875 -2.61562,0.43875 -2.278128,0 -3.504378,-1.051873 -1.220623,-1.0575 -1.456873,-3.07125 z m 11.326721,-2.030627 q 0,-1.83375 0.54562,-3.0825 0.41063,-0.916873 1.11938,-1.648123 0.71437,-0.73125 1.55812,-1.08 1.125,-0.478127 2.5875,-0.478127 2.66063,0 4.2525,1.648127 1.5975,1.648123 1.5975,4.584373 0,2.91375 -1.58625,4.55625 -1.58062,1.6425 -4.23,1.6425 -2.6775,0 -4.26375,-1.63125 -1.58062,-1.636873 -1.58062,-4.51125 z m 2.4975,-0.07875 q 0,2.041877 0.945,3.099377 0.945,1.051873 2.39625,1.051873 1.45125,0 2.37937,-1.04625 0.93375,-1.04625 0.93375,-3.13875 0,-2.064373 -0.90562,-3.0825 -0.90563,-1.018123 -2.4075,-1.018123 -1.50188,0 -2.42438,1.029373 -0.91687,1.029377 -0.91687,3.105 z m 11.08466,6.01875 0,-12.020623 2.3625,0 4.91624,8.026873 0,-8.026873 2.25563,0 0,12.020623 -2.43563,0 -4.84311,-7.84125 0,7.84125 -2.25563,0 z" />
  <path
     style="fill:#efefef;fill-rule:nonzero;stroke:none;stroke-linecap:square;stroke-miterlimit:10"
     inkscape:connector-curvature="0"
     id="path37"
     d="m 19.37706,61.393167 0,-13.741873 9.41625,0 0,2.323123 -6.643127,0 0,3.25125 5.7375,0 0,2.32875 -5.7375,0 0,5.83875 -2.773123,0 z m 11.687608,0 0,-13.741873 2.632499,0 0,13.741873 -2.632499,0 z m 5.333859,-11.30625 0,-2.435623 2.6325,0 0,2.435623 -2.6325,0 z m 0,11.30625 0,-9.95625 2.6325,0 0,9.95625 -2.6325,0 z m 4.72635,-5.11875 q 0,-1.310623 0.64688,-2.536873 0.64687,-1.231877 1.82812,-1.87875 1.18687,-0.646877 2.64937,-0.646877 2.26125,0 3.70125,1.468127 1.44563,1.468123 1.44563,3.706873 0,2.26125 -1.45688,3.74625 -1.45687,1.485 -3.6675,1.485 -1.3725,0 -2.61562,-0.61875 -1.2375,-0.61875 -1.88437,-1.81125 -0.64688,-1.198123 -0.64688,-2.91375 z m 2.7,0.140627 q 0,1.479373 0.70312,2.266873 0.70313,0.7875 1.7325,0.7875 1.02938,0 1.72688,-0.7875 0.70312,-0.7875 0.70312,-2.28375 0,-1.4625 -0.70312,-2.25 -0.6975,-0.7875 -1.72688,-0.7875 -1.02937,0 -1.7325,0.7875 -0.70312,0.7875 -0.70312,2.266877 z m 8.36885,4.978123 3.58875,-5.13 -3.43687,-4.82625 3.21187,0 1.76625,2.739377 1.85625,-2.739377 3.08813,0 -3.36938,4.71375 3.67875,5.2425 -3.22875,0 -2.025,-3.0825 -2.0475,3.0825 -3.0825,0 z" />
</svg>
