<?xml version="1.0" encoding="UTF-8" standalone="no"?>
<svg
   xmlns:dc="http://purl.org/dc/elements/1.1/"
   xmlns:cc="http://creativecommons.org/ns#"
   xmlns:rdf="http://www.w3.org/1999/02/22-rdf-syntax-ns#"
   xmlns:svg="http://www.w3.org/2000/svg"
   xmlns="http://www.w3.org/2000/svg"
   xmlns:sodipodi="http://sodipodi.sourceforge.net/DTD/sodipodi-0.dtd"
   xmlns:inkscape="http://www.inkscape.org/namespaces/inkscape"
   version="1.1"
   viewBox="0 0 120 100"
   stroke-miterlimit="10"
   id="svg8378"
   inkscape:version="0.91 r13725"
   sodipodi:docname="friflo Json Fliox 4.svg"
   width="120"
   height="100"
   style="fill:none;stroke:none;stroke-linecap:square;stroke-miterlimit:10">
  <metadata
     id="metadata8429">
    <rdf:RDF>
      <cc:Work
         rdf:about="">
        <dc:format>image/svg+xml</dc:format>
        <dc:type
           rdf:resource="http://purl.org/dc/dcmitype/StillImage" />
        <dc:title></dc:title>
      </cc:Work>
    </rdf:RDF>
  </metadata>
  <defs
     id="defs8427">
    <defs
       id="defs8399">
      <filter
         filterUnits="userSpaceOnUse"
         id="shadowFilter-p.1">
        <feGaussianBlur
           id="feGaussianBlur8402"
           result="blur"
           stdDeviation="4.5"
           in="SourceAlpha" />
        <feComponentTransfer
           id="feComponentTransfer8404"
           in="blur"
           style="color-interpolation-filters:sRGB">
          <feFuncR
             id="feFuncR8406"
             intercept="0.0"
             slope="0"
             type="linear" />
          <feFuncG
             id="feFuncG8408"
             intercept="0.0"
             slope="0"
             type="linear" />
          <feFuncB
             id="feFuncB8410"
             intercept="0.0"
             slope="0"
             type="linear" />
          <feFuncA
             id="feFuncA8412"
             intercept="0"
             slope="0.24"
             type="linear" />
        </feComponentTransfer>
      </filter>
    </defs>
    <filter
       style="color-interpolation-filters:sRGB"
       inkscape:label="Drop Shadow"
       id="filter12944">
      <feFlood
         flood-opacity="0.498039"
         flood-color="rgb(0,0,0)"
         result="flood"
         id="feFlood12946" />
      <feComposite
         in="flood"
         in2="SourceGraphic"
         operator="in"
         result="composite1"
         id="feComposite12948" />
      <feGaussianBlur
         in="composite1"
         stdDeviation="3"
         result="blur"
         id="feGaussianBlur12950" />
      <feOffset
         dx="6"
         dy="6"
         result="offset"
         id="feOffset12952" />
      <feComposite
         in="SourceGraphic"
         in2="offset"
         operator="over"
         result="composite2"
         id="feComposite12954" />
    </filter>
  </defs>
  <sodipodi:namedview
     pagecolor="#ffffff"
     bordercolor="#666666"
     borderopacity="1"
     objecttolerance="10"
     gridtolerance="10"
     guidetolerance="10"
     inkscape:pageopacity="0"
     inkscape:pageshadow="2"
     inkscape:window-width="2560"
     inkscape:window-height="1361"
     id="namedview8425"
     showgrid="false"
     inkscape:zoom="5.65"
     inkscape:cx="70.338288"
     inkscape:cy="60.075536"
     inkscape:window-x="-9"
     inkscape:window-y="-9"
     inkscape:window-maximized="1"
     inkscape:current-layer="svg8378" />
  <clipPath
     id="p.0">
    <path
       d="m 0,0 960,0 0,540 -960,0 0,-540 z"
       id="path8381"
       inkscape:connector-curvature="0"
       style="clip-rule:nonzero" />
  </clipPath>
  <path
     style="fill:#000000;fill-opacity:0;fill-rule:evenodd"
     inkscape:connector-curvature="0"
     id="path8385"
     d="m 0,-440 960,0 0,540 -960,0 z" />
  <g
     id="g12956"
     transform="matrix(0.48689255,0,0,0.49178564,-178.61612,-75.571609)">
    <path
       d="m 448.91158,224.71085 136.17322,0 28.64569,28.64567 0,103.22835 -164.81891,0 z"
       id="path8387"
       inkscape:connector-curvature="0"
       style="fill:#0000c9;fill-rule:evenodd" />
    <path
       d="m 443.11893,224.71085 173.41731,0 0,122.86614 -173.41731,0 z"
       id="path8389"
       inkscape:connector-curvature="0"
       style="fill:#000000;fill-opacity:0;fill-rule:evenodd" />
    <path
       d="m 481.75487,245.12022 6.71875,0 0,21.14063 q 0,4.14062 -0.73438,6.375 -0.98437,2.90625 -3.5625,4.67187 -2.5625,1.76563 -6.78125,1.76563 -4.9375,0 -7.60937,-2.76563 -2.67188,-2.76562 -2.6875,-8.10937 l 6.35937,-0.73438 q 0.10938,2.875 0.84375,4.04688 1.09375,1.8125 3.32813,1.8125 2.25,0 3.1875,-1.28125 0.9375,-1.29688 0.9375,-5.35938 l 0,-21.5625 z m 12.18236,22.53125 6.56248,-0.64062 q 0.59375,3.29687 2.40625,4.84375 1.8125,1.54687 4.875,1.54687 3.26563,0 4.90625,-1.375 1.65625,-1.375 1.65625,-3.21875 0,-1.1875 -0.70312,-2.01562 -0.6875,-0.82813 -2.40625,-1.45313 -1.1875,-0.40625 -5.40625,-1.45312 -5.42188,-1.34375 -7.60936,-3.29688 -3.07813,-2.76562 -3.07813,-6.73437 0,-2.54688 1.4375,-4.76563 1.45313,-2.21875 4.17186,-3.375 2.73438,-1.17187 6.57813,-1.17187 6.29687,0 9.46875,2.76562 3.17187,2.75 3.34375,7.34375 l -6.75,0.29688 q -0.4375,-2.5625 -1.85938,-3.6875 -1.42187,-1.14063 -4.26562,-1.14063 -2.9375,0 -4.60938,1.21875 -1.0625,0.76563 -1.0625,2.0625 0,1.1875 1,2.03125 1.28125,1.07813 6.1875,2.23438 4.92188,1.15625 7.28125,2.40625 2.35938,1.23437 3.6875,3.39062 1.34375,2.15625 1.34375,5.3125 0,2.875 -1.59375,5.39063 -1.59375,2.5 -4.51562,3.71875 -2.92188,1.21875 -7.26563,1.21875 -6.32812,0 -9.73436,-2.92188 -3.39062,-2.9375 -4.04687,-8.53125 z m 31.46309,-5.64062 q 0,-5.09375 1.51562,-8.5625 1.14063,-2.54688 3.10938,-4.57813 1.98437,-2.03125 4.32812,-3 3.125,-1.32812 7.1875,-1.32812 7.39063,0 11.8125,4.57812 4.4375,4.57813 4.4375,12.73438 0,8.09375 -4.40625,12.65625 -4.39062,4.5625 -11.75,4.5625 -7.4375,0 -11.84375,-4.53125 -4.39062,-4.54688 -4.39062,-12.53125 z m 6.9375,-0.21875 q 0,5.67187 2.625,8.60937 2.625,2.92188 6.65625,2.92188 4.03125,0 6.60937,-2.90625 2.59375,-2.90625 2.59375,-8.71875 0,-5.73438 -2.51562,-8.5625 -2.51563,-2.82813 -6.6875,-2.82813 -4.17188,0 -6.73438,2.85938 -2.54687,2.85937 -2.54687,8.625 z m 30.79074,16.71875 0,-33.39063 6.5625,0 13.65625,22.29688 0,-22.29688 6.26562,0 0,33.39063 -6.76562,0 -13.45313,-21.78125 0,21.78125 -6.26562,0 z"
       id="path8391"
       inkscape:connector-curvature="0"
       style="fill:#ffffff;fill-rule:nonzero" />
    <path
       d="m 473.04185,340.91084 0,-38.17188 26.15625,0 0,6.45313 -18.45313,0 0,9.03125 15.9375,0 0,6.46875 -15.9375,0 0,16.21875 -7.70312,0 z m 32.46559,0 0,-38.17188 7.3125,0 0,38.17188 -7.3125,0 z m 13.12875,-14.21875 q 0,-3.64063 1.79688,-7.04688 1.79687,-3.42187 5.07812,-5.21875 3.29688,-1.79687 7.35938,-1.79687 6.28125,0 10.28125,4.07812 4.01562,4.07813 4.01562,10.29688 0,6.28125 -4.04687,10.40625 -4.04688,4.125 -10.1875,4.125 -3.8125,0 -7.26563,-1.71875 -3.4375,-1.71875 -5.23437,-5.03125 -1.79688,-3.32813 -1.79688,-8.09375 z m 7.5,0.39062 q 0,4.10938 1.95313,6.29688 1.95312,2.1875 4.8125,2.1875 2.85937,0 4.79687,-2.1875 1.95313,-2.1875 1.95313,-6.34375 0,-4.0625 -1.95313,-6.25 -1.9375,-2.1875 -4.79687,-2.1875 -2.85938,0 -4.8125,2.1875 -1.95313,2.1875 -1.95313,6.29687 z m 31.9187,13.82813 -8.75,-27.65625 7.10938,0 5.1875,18.125 4.76562,-18.125 7.04688,0 4.60937,18.125 5.28125,-18.125 7.21875,0 -8.875,27.65625 -7.03125,0 -4.76562,-17.78125 -4.6875,17.78125 -7.10938,0 z"
       id="path8393"
       inkscape:connector-curvature="0"
       style="fill:#ffffff;fill-rule:nonzero" />
    <g
       transform="translate(243.29479,97.117675)"
       style="filter:url(#filter12944)"
       id="p.1">
      <path
         d="m 131.82677,121.20998 0,0 c 0,-29.223259 23.69014,-52.91339 52.91339,-52.91339 l 0,0 c 14.03351,0 27.49223,5.574791 37.41542,15.497978 9.92317,9.92318 15.49797,23.381902 15.49797,37.415412 l 0,0 c 0,29.22325 -23.69014,52.91338 -52.91339,52.91338 l 0,0 c -29.22325,0 -52.91339,-23.69013 -52.91339,-52.91338 z"
         id="path8415"
         inkscape:connector-curvature="0"
         style="fill:#ffffff;fill-rule:evenodd" />
    </g>
    <path
       d="m 378.40239,153.59012 149.79529,0 0,61.03936 -149.79529,0 z"
       id="path8417"
       inkscape:connector-curvature="0"
       style="fill:#000000;fill-opacity:0;fill-rule:evenodd" />
    <path
       d="m 409.33989,186.72636 -1.17188,5.60938 -5.42187,0 -4.75,22.73437 -7.65625,0 4.75,-22.73437 -4.26563,0 1.17188,-5.60938 4.26562,0 0.60938,-2.90625 q 0.75,-3.57812 1.42187,-4.82812 0.90625,-1.71875 2.70313,-2.71875 1.8125,-1 4.71875,-1 3.51562,0 7.42187,1.28125 l -1.5,5.46875 q -2.75,-0.92188 -4.45312,-0.92188 -1.3125,0 -1.95313,0.82813 -0.42187,0.53125 -0.875,2.79687 l -0.4375,2 5.42188,0 z m 3.95096,0 7.15625,0 -1.15625,5.5 q 4,-6.17187 8.67187,-6.17187 1.65625,0 3.54688,0.82812 l -2.92188,6.28125 q -1.04687,-0.375 -2.21875,-0.375 -1.98437,0 -4.03125,1.5 -2.03125,1.48438 -3.1875,3.98437 -1.14062,2.5 -2.26562,7.90625 l -1.85938,8.89063 -7.65625,0 5.92188,-28.34375 z m 23.94191,-10.78125 7.65625,0 -1.4375,6.9375 -7.67188,0 1.45313,-6.9375 z m -2.25,10.78125 7.65625,0 -5.92188,28.34375 -7.65625,0 5.92188,-28.34375 z"
       id="path8419"
       inkscape:connector-curvature="0"
       style="fill:#ff0000;fill-rule:nonzero" />
    <path
       d="m 390.22918,198.68723 149.79526,0 0,61.03936 -149.79526,0 z"
       id="path8421"
       inkscape:connector-curvature="0"
       style="fill:#000000;fill-opacity:0;fill-rule:evenodd" />
    <path
       d="m 421.16668,231.82348 -1.17188,5.60938 -5.42187,0 -4.75,22.73437 -7.65625,0 4.75,-22.73437 -4.26563,0 1.17188,-5.60938 4.26562,0 0.60938,-2.90625 q 0.75,-3.57812 1.42187,-4.82813 0.90625,-1.71875 2.70313,-2.71875 1.8125,-1 4.71875,-1 3.51562,0 7.42187,1.28125 l -1.5,5.46876 q -2.75,-0.92188 -4.45312,-0.92188 -1.3125,0 -1.95313,0.82813 -0.42187,0.53125 -0.875,2.79687 l -0.4375,2 5.42188,0 z m -1.59592,28.34375 8.1875,-39.12501 7.625,0 -8.15625,39.12501 -7.65625,0 z m 16.35714,-11.76562 q 0,-7.875 4.4375,-12.5625 4.45312,-4.6875 11.67187,-4.6875 6.28125,0 9.79688,3.46875 3.53125,3.45312 3.53125,9.29687 0,6.875 -4.40625,11.90625 -4.40625,5.01563 -11.79688,5.01563 -4,0 -7.09375,-1.59375 -3.09375,-1.60938 -4.625,-4.54688 -1.51562,-2.9375 -1.51562,-6.29687 z m 21.82812,-5.46875 q 0,-2.73438 -1.59375,-4.375 -1.57812,-1.64063 -4.09375,-1.64063 -2.48437,0 -4.40625,1.54688 -1.92187,1.53125 -2.98437,4.45312 -1.0625,2.92188 -1.0625,5.375 0,3.04688 1.64062,4.84375 1.65625,1.78125 4.17188,1.78125 3.15625,0 5.28125,-2.70312 3.04687,-3.8125 3.04687,-9.28125 z"
       id="path8423"
       inkscape:connector-curvature="0"
       style="fill:#ff0000;fill-rule:nonzero" />
  </g>
</svg>
