<?xml version="1.0" encoding="UTF-8" standalone="no"?>
<svg
   xmlns:dc="http://purl.org/dc/elements/1.1/"
   xmlns:cc="http://creativecommons.org/ns#"
   xmlns:rdf="http://www.w3.org/1999/02/22-rdf-syntax-ns#"
   xmlns:svg="http://www.w3.org/2000/svg"
   xmlns="http://www.w3.org/2000/svg"
   xmlns:sodipodi="http://sodipodi.sourceforge.net/DTD/sodipodi-0.dtd"
   xmlns:inkscape="http://www.inkscape.org/namespaces/inkscape"
   version="1.1"
   viewBox="0 0 120 100"
   stroke-miterlimit="10"
   id="svg8378"
   inkscape:version="0.91 r13725"
   sodipodi:docname="Json-Fliox-120x100.svg"
   width="120"
   height="100"
   style="fill:none;stroke:none;stroke-linecap:square;stroke-miterlimit:10">
  <metadata
     id="metadata8429">
    <rdf:RDF>
      <cc:Work
         rdf:about="">
        <dc:format>image/svg+xml</dc:format>
        <dc:type
           rdf:resource="http://purl.org/dc/dcmitype/StillImage" />
        <dc:title />
      </cc:Work>
    </rdf:RDF>
  </metadata>
  <defs
     id="defs8427">
    <defs
       id="defs8399">
      <filter
         filterUnits="userSpaceOnUse"
         id="shadowFilter-p.1">
        <feGaussianBlur
           id="feGaussianBlur8402"
           result="blur"
           stdDeviation="4.5"
           in="SourceAlpha" />
        <feComponentTransfer
           id="feComponentTransfer8404"
           in="blur"
           style="color-interpolation-filters:sRGB">
          <feFuncR
             id="feFuncR8406"
             intercept="0.0"
             slope="0"
             type="linear" />
          <feFuncG
             id="feFuncG8408"
             intercept="0.0"
             slope="0"
             type="linear" />
          <feFuncB
             id="feFuncB8410"
             intercept="0.0"
             slope="0"
             type="linear" />
          <feFuncA
             id="feFuncA8412"
             intercept="0"
             slope="0.24"
             type="linear" />
        </feComponentTransfer>
      </filter>
    </defs>
    <filter
       style="color-interpolation-filters:sRGB"
       inkscape:label="Drop Shadow"
       id="filter12944">
      <feFlood
         flood-opacity="0.498039"
         flood-color="rgb(0,0,0)"
         result="flood"
         id="feFlood12946" />
      <feComposite
         in="flood"
         in2="SourceGraphic"
         operator="in"
         result="composite1"
         id="feComposite12948" />
      <feGaussianBlur
         in="composite1"
         stdDeviation="3"
         result="blur"
         id="feGaussianBlur12950" />
      <feOffset
         dx="6"
         dy="6"
         result="offset"
         id="feOffset12952" />
      <feComposite
         in="SourceGraphic"
         in2="offset"
         operator="over"
         result="composite2"
         id="feComposite12954" />
    </filter>
  </defs>
  <sodipodi:namedview
     pagecolor="#ffffff"
     bordercolor="#666666"
     borderopacity="1"
     objecttolerance="10"
     gridtolerance="10"
     guidetolerance="10"
     inkscape:pageopacity="0"
     inkscape:pageshadow="2"
     inkscape:window-width="1920"
     inkscape:window-height="1121"
     id="namedview8425"
     showgrid="false"
     inkscape:zoom="7.9903066"
     inkscape:cx="63.460681"
     inkscape:cy="44.486178"
     inkscape:window-x="2551"
     inkscape:window-y="94"
     inkscape:window-maximized="1"
     inkscape:current-layer="svg8378" />
  <clipPath
     id="p.0">
    <path
       d="m 0,0 960,0 0,540 -960,0 0,-540 z"
       id="path8381"
       inkscape:connector-curvature="0"
       style="clip-rule:nonzero" />
  </clipPath>
  <rect
     style="opacity:1;fill:#0000c9;fill-opacity:1;fill-rule:nonzero;stroke:none;stroke-width:23.39999962;stroke-linecap:square;stroke-miterlimit:4;stroke-dasharray:none;stroke-dashoffset:0;stroke-opacity:1"
     id="rect8095"
     width="82.243088"
     height="66.494415"
     x="37.417698"
     y="33.212147"
     rx="6.4876285"
     ry="6.5396037" />
  <path
     style="fill:#000000;fill-opacity:0;fill-rule:evenodd"
     inkscape:connector-curvature="0"
     id="path8385"
     d="m 0,-440 960,0 0,540 -960,0 z" />
  <path
     style="fill:#000000;fill-opacity:0;fill-rule:evenodd"
     inkscape:connector-curvature="0"
     id="path8389"
     d="m 34.829483,32.106194 85.591017,0 0,61.250646 -85.591017,0 z" />
  <g
     id="p.1"
     style="filter:url(#filter12944)"
     transform="matrix(0.49355521,0,0,0.49851527,-63.794762,-31.500952)">
    <path
       style="fill:#ffffff;fill-rule:evenodd"
       inkscape:connector-curvature="0"
       id="path8415"
       d="m 131.82677,121.20998 0,0 c 0,-29.223259 23.69014,-52.91339 52.91339,-52.91339 l 0,0 c 14.03351,0 27.49223,5.574791 37.41542,15.497978 9.92317,9.92318 15.49797,23.381902 15.49797,37.415412 l 0,0 c 0,29.22325 -23.69014,52.91338 -52.91339,52.91338 l 0,0 c -29.22325,0 -52.91339,-23.69013 -52.91339,-52.91338 z" />
  </g>
  <path
     style="fill:#000000;fill-opacity:0;fill-rule:evenodd"
     inkscape:connector-curvature="0"
     id="path8417"
     d="m 2.888298,-3.348576 73.932245,0 0,30.429053 -73.932245,0 z" />
  <path
     style="fill:#ff0000;fill-rule:nonzero"
     inkscape:connector-curvature="0"
     id="path8419"
     d="m 18.157663,13.170346 -0.578389,2.796361 -2.675992,0 -2.344387,11.333431 -3.7787818,0 2.3443868,-11.333431 -2.1053234,0 0.5783875,-2.796361 2.1053189,0 0.300763,-1.44881 q 0.370166,-1.7837483 0.701771,-2.4068912 0.447284,-0.8568237 1.334144,-1.3553386 0.894569,-0.498515 2.328964,-0.498515 1.735153,0 3.663102,0.6387228 l -0.740332,2.726254 q -1.357277,-0.459571 -2.197862,-0.459571 -0.647791,0 -0.963976,0.412836 -0.208217,0.264836 -0.431861,1.394283 l -0.215931,0.99703 2.675998,0 z m 1.950016,0 3.532004,0 -0.570673,2.741834 q 1.974221,-3.076772 4.280047,-3.076772 0.817451,0 1.750581,0.412831 l -1.44211,3.131299 q -0.516688,-0.186943 -1.095075,-0.186943 -0.979396,0 -1.989643,0.747773 -1.002536,0.739986 -1.573209,1.986269 -0.562959,1.246287 -1.118208,3.941386 l -0.917706,4.432115 -3.778783,0 2.922775,-14.129792 z m 11.816655,-5.3746181 3.778781,0 -0.709485,3.4584501 -3.786496,0 0.7172,-3.4584501 z m -1.110499,5.3746181 3.778781,0 -2.922775,14.129792 -3.778782,0 2.922776,-14.129792 z" />
  <path
     style="fill:#000000;fill-opacity:0;fill-rule:evenodd"
     inkscape:connector-curvature="0"
     id="path8421"
     d="m 8.7254718,19.133022 73.9322312,0 0,30.429053 -73.9322312,0 z" />
  <path
     style="fill:#ff0000;fill-rule:nonzero"
     inkscape:connector-curvature="0"
     id="path8423"
     d="m 23.994835,35.651948 -0.578387,2.796362 -2.675992,0 -2.344387,11.333431 -3.778782,0 2.344387,-11.333431 -2.105323,0 0.578387,-2.796362 2.105319,0 0.300763,-1.44881 q 0.370166,-1.783747 0.701772,-2.406896 0.447284,-0.856823 1.334142,-1.355338 0.89457,-0.498515 2.328964,-0.498515 1.735152,0 3.663103,0.638723 l -0.740334,2.72626 q -1.357275,-0.459572 -2.19786,-0.459572 -0.647791,0 -0.963977,0.412835 -0.208216,0.264838 -0.431861,1.394283 l -0.21593,0.99703 2.675996,0 z m -0.787673,14.129793 4.040983,-19.504415 3.763357,0 -4.025559,19.504415 -3.778781,0 z m 8.073151,-5.865341 q 0,-3.925808 2.190151,-6.262598 2.19786,-2.336791 5.760712,-2.336791 3.100144,0 4.835301,1.729224 1.742867,1.721434 1.742867,4.634632 0,3.427293 -2.174727,5.935448 -2.174728,2.500368 -5.822411,2.500368 -1.974222,0 -3.501158,-0.794509 -1.526937,-0.802301 -2.282692,-2.266689 -0.748043,-1.464388 -0.748043,-3.139085 z m 10.773383,-2.726256 q 0,-1.36313 -0.786604,-2.181004 -0.77889,-0.817879 -2.020493,-0.817879 -1.226172,0 -2.174727,0.771143 -0.948548,0.763352 -1.47295,2.219948 -0.524403,1.456602 -0.524403,2.679519 0,1.518917 0.809736,2.414683 0.817452,0.887981 2.059054,0.887981 1.557783,0 2.606587,-1.347547 1.5038,-1.900588 1.5038,-4.626844 z" />
  <path
     style="fill:#efefef;fill-rule:nonzero"
     inkscape:connector-curvature="0"
     id="path35"
     d="m 52.286302,43.152147 3.632161,0 0,11.428634 q 0,2.238428 -0.397006,3.44633 -0.532151,1.57112 -1.92589,2.525622 -1.38529,0.954495 -3.665949,0.954495 -2.669216,0 -4.113631,-1.495096 -1.44442,-1.495102 -1.452864,-4.383937 l 3.437879,-0.397001 q 0.05912,1.554227 0.456132,2.187741 0.591282,0.979839 1.79919,0.979839 1.216352,0 1.723165,-0.692645 0.506813,-0.701089 0.506813,-2.897279 l 0,-11.656703 z m 6.585793,12.18041 3.547693,-0.346326 q 0.320981,1.782296 1.30082,2.618535 0.979839,0.836245 2.635429,0.836245 1.765396,0 2.652322,-0.743326 0.89537,-0.743326 0.89537,-1.740059 0,-0.641963 -0.380113,-1.089651 -0.371663,-0.447682 -1.30082,-0.785557 -0.641964,-0.219619 -2.922623,-0.785564 -2.931067,-0.726432 -4.113631,-1.78229 -1.664039,-1.495102 -1.664039,-3.640611 0,-1.376839 0.777113,-2.576297 0.785564,-1.199458 2.255322,-1.824528 1.478202,-0.633519 3.556136,-0.633519 3.404098,0 5.118813,1.495102 1.714721,1.486652 1.807634,3.970036 l -3.649055,0.160488 q -0.236513,-1.385289 -1.005176,-1.993465 -0.76867,-0.61662 -2.306003,-0.61662 -1.588015,0 -2.491829,0.658857 -0.574388,0.413895 -0.574388,1.114989 0,0.641964 0.540601,1.098096 0.692644,0.582832 3.344967,1.207901 2.660766,0.62507 3.936249,1.300821 1.275476,0.667307 1.993465,1.832977 0.726432,1.165671 0.726432,2.871942 0,1.554227 -0.861582,2.914172 -0.861583,1.351502 -2.441154,2.010359 -1.579564,0.658858 -3.927799,0.658858 -3.420992,0 -5.262413,-1.579565 -1.832971,-1.588015 -2.187741,-4.612 z m 17.008975,-3.049329 q 0,-2.753685 0.819351,-4.628894 0.61662,-1.376839 1.680928,-2.474935 1.072757,-1.098095 2.33979,-1.621802 1.689378,-0.717988 3.885568,-0.717988 3.995374,0 6.385846,2.47494 2.398916,2.474935 2.398916,6.88421 0,4.375487 -2.382022,6.841978 -2.373578,2.466491 -6.352059,2.466491 -4.020718,0 -6.40274,-2.449597 -2.373578,-2.458041 -2.373578,-6.774403 z m 3.750418,-0.118257 q 0,3.066223 1.419077,4.654238 1.419077,1.579565 3.598373,1.579565 2.179297,0 3.573036,-1.571121 1.402184,-1.571121 1.402184,-4.713363 0,-3.100004 -1.359952,-4.628894 -1.359946,-1.528883 -3.615268,-1.528883 -2.255315,0 -3.640605,1.545777 -1.376845,1.545783 -1.376845,4.662681 z m 16.645496,9.038169 0,-18.050993 3.547692,0 7.382564,12.053703 0,-12.053703 3.3872,0 0,18.050993 -3.6575,0 -7.272752,-11.77496 0,11.77496 -3.387204,0 z" />
  <path
     style="fill:#efefef;fill-rule:nonzero"
     inkscape:connector-curvature="0"
     id="path37"
     d="m 45.969283,89.886766 0,-20.635741 14.140088,0 0,3.488561 -9.975776,0 0,4.882301 8.615825,0 0,3.497011 -8.615825,0 0,8.767868 -4.164312,0 z m 17.550916,0 0,-20.635741 3.953142,0 0,20.635741 -3.953142,0 z m 8.009681,-16.978242 0,-3.657499 3.953143,0 0,3.657499 -3.953143,0 z m 0,16.978242 0,-14.950989 3.953143,0 0,14.950989 -3.953143,0 z m 7.097423,-7.686667 q 0,-1.968121 0.971394,-3.809542 0.971389,-1.849872 2.745236,-2.821261 1.782285,-0.971394 3.978476,-0.971394 3.395648,0 5.558051,2.20464 2.170853,2.204634 2.170853,5.566495 0,3.395648 -2.187747,5.625626 -2.187741,2.229978 -5.50737,2.229978 -2.06104,0 -3.927795,-0.929157 -1.858315,-0.929158 -2.829704,-2.719898 -0.971394,-1.799183 -0.971394,-4.375487 z m 4.054505,0.211175 q 0,2.221529 1.055853,3.404093 1.055864,1.182564 2.601641,1.182564 1.545784,0 2.593197,-1.182564 1.055858,-1.182564 1.055858,-3.429436 0,-2.196191 -1.055858,-3.378755 -1.047413,-1.182564 -2.593197,-1.182564 -1.545777,0 -2.601641,1.182564 -1.055853,1.182564 -1.055853,3.404098 z m 12.567243,7.475492 5.389109,-7.70356 -5.16104,-7.247429 4.82317,0 2.65232,4.113637 2.78747,-4.113637 4.63735,0 -5.05969,7.078491 5.52426,7.872498 -4.84851,0 -3.04088,-4.628894 -3.074665,4.628894 -4.628894,0 z" />
</svg>
