<?xml version="1.0" encoding="UTF-8" standalone="no"?>
<svg
   xmlns:dc="http://purl.org/dc/elements/1.1/"
   xmlns:cc="http://creativecommons.org/ns#"
   xmlns:rdf="http://www.w3.org/1999/02/22-rdf-syntax-ns#"
   xmlns:svg="http://www.w3.org/2000/svg"
   xmlns="http://www.w3.org/2000/svg"
   xmlns:sodipodi="http://sodipodi.sourceforge.net/DTD/sodipodi-0.dtd"
   xmlns:inkscape="http://www.inkscape.org/namespaces/inkscape"
   version="1.1"
   x="0"
   y="0"
   width="300"
   height="30"
   viewBox="0 0 300 30"
   id="svg2"
   inkscape:version="0.91 r13725"
   sodipodi:docname="paint-splatter.svg">
  <metadata
     id="metadata185">
    <rdf:RDF>
      <cc:Work
         rdf:about="">
        <dc:format>image/svg+xml</dc:format>
        <dc:type
           rdf:resource="http://purl.org/dc/dcmitype/StillImage" />
        <dc:title></dc:title>
      </cc:Work>
    </rdf:RDF>
  </metadata>
  <defs
     id="defs183" />
  <sodipodi:namedview
     pagecolor="#ffffff"
     bordercolor="#666666"
     borderopacity="1"
     objecttolerance="10"
     gridtolerance="10"
     guidetolerance="10"
     inkscape:pageopacity="0"
     inkscape:pageshadow="2"
     inkscape:window-width="2560"
     inkscape:window-height="1346"
     id="namedview181"
     showgrid="false"
     inkscape:zoom="3.4389501"
     inkscape:cx="175.98892"
     inkscape:cy="-73.323815"
     inkscape:window-x="-11"
     inkscape:window-y="-11"
     inkscape:window-maximized="1"
     inkscape:current-layer="svg2" />
  <g
     id="g8667"
     transform="matrix(0.24467438,0,0,0.28133956,-150.83903,-2.3119372)">
    <path
       style="fill:#df542a"
       inkscape:connector-curvature="0"
       id="path33"
       d="m 1661.834,19.125 -3.282,0.828 2.657,0.024 z" />
    <path
       style="fill:#df542a"
       inkscape:connector-curvature="0"
       id="path35"
       d="m 1766.076,368.633 c -2.344,-2.57 -4.75,-5.297 -6.274,-7.93 -0.718,-1.273 -1.234,-2.523 -1.429,-3.734 -2.727,-1.773 -4.727,-1.797 -7.274,0.789 -0.883,4.25 0.149,8.07 2.125,11.524 2.906,5.062 7.781,9.351 11.492,13 8.172,-0.618 9.094,-3.102 7.118,-6.555 -1.196,-2.086 -3.43,-4.516 -5.758,-7.094" />
    <path
       style="fill:#df542a"
       inkscape:connector-curvature="0"
       id="path37"
       d="m 1878.998,331.141 1.218,-2.813 -1.484,1.883 z" />
    <path
       style="fill:#df542a"
       inkscape:connector-curvature="0"
       id="path39"
       d="m 1971.959,181.188 c -19.657,-2.242 -36.993,7.609 -58.954,4.484 -2.742,-0.39 -5.531,-0.984 -8.421,-1.82 -1.719,-1.367 -3.352,-1.992 -4.993,-2.227 -1.89,-0.273 -3.75,0 -5.632,0.274 -1.875,0.258 -3.766,0.523 -5.727,0.25 -2.297,-0.328 -4.68,-1.383 -7.211,-4.063 -7.133,-8.742 -2.883,-11.578 3.781,-14.906 -1.484,-1.414 -2.734,-2.047 -3.867,-2.211 -3.711,-0.516 -6.047,4.07 -10.414,3.758 -16.266,-8.633 7.539,-10.781 4.664,-22.36 -2.031,0.024 -2.883,2.36 -4.375,4.235 -4.703,1.508 -8.015,1.961 -10.328,1.64 -11.039,-1.578 0.031,-20.718 -10.039,-27.89 l -0.125,-0.024 c -2.508,-0.359 -3.703,1.063 -4.953,2.469 -1.242,1.414 -2.508,2.813 -5.18,2.438 -0.187,-0.032 -0.383,-0.063 -0.57,-0.118 -9.086,-5 -14.461,-14.695 -15.242,-22.578 -5.321,-1.117 -9.828,-2.445 -13.938,-3.031 -7.211,-1.023 -13.273,0.18 -20.57,8.539 -6.375,-9.695 -18.352,-7.203 -21.602,-18.336 -7.625,2.071 -7.273,14.031 -16.14,15.117 -1.414,-6.609 -3.18,-13.226 -5.758,-19.812 l -11.133,-2.18 c -3.297,-5.844 0.742,-13.578 -0.195,-19.258 -7.344,-4.336 -1.907,10.407 -9.477,6.969 -7.562,-6.539 -8.515,-19.953 -13.008,-27.469 -1.656,3.274 -2.851,9.407 -2.367,13.766 -5.695,1.719 -13.492,-2.344 -17.539,-3.914 -0.476,-4.398 -2.125,-10.438 -5.187,-12.563 -6.399,2.883 2.57,19.477 -9.266,15.368 -7.086,2.492 -4.938,-10.352 -10.617,-10.196 -5.696,3.25 0.695,8.141 -0.961,12.961 -1.008,1.211 -1.914,1.711 -2.789,1.93 -1.281,-0.219 -2.563,-0.633 -3.899,-1.281 -1.82,-1.594 -3.57,-3.93 -5.398,-5.242 -2.805,-6.024 -0.344,-11.407 1.766,-16.782 -7.836,-13.125 -8.25,8.641 -14.157,10.336 -4.539,-4.469 -8.961,-9.844 -12.289,-15.648 -3.203,-5.617 -5.383,-11.617 -5.64,-17.641 -6.407,5.18 -1.766,20.891 -8.805,26.914 -6.297,-1.539 -17.344,10.899 -22.149,2.492 -0.82,-1.421 -1.445,-3.429 -1.851,-6.187 -9.399,-2.711 -0.805,12.18 -5.914,16.508 -3.078,1.336 -4.852,-0.922 -6.313,-3.492 -0.25,-0.438 -0.492,-0.86 -0.711,-1.282 -0.234,-0.437 -0.453,-0.859 -0.687,-1.265 -0.789,-1.383 -1.602,-2.508 -2.609,-2.782 0.343,0.43 0.632,0.86 0.89,1.297 4.305,7.532 -4.953,15.625 -7.156,23.024 -4.266,2.851 -6.555,-0.141 -8.774,-4.016 -0.25,-0.445 -0.523,-0.937 -0.796,-1.414 -0.258,-0.492 -0.524,-0.969 -0.805,-1.445 -1.984,-3.485 -4.25,-6.688 -8.063,-6.375 -0.226,1.937 0.352,3.718 1.344,5.429 0.82,1.461 1.922,2.844 3.016,4.25 1.094,1.407 2.179,2.805 3.031,4.266 1.375,2.406 2.047,4.969 0.82,7.922 -12.195,-6.195 -28.132,-23.781 -43.046,-16.094 -9.188,-14.008 -22.477,-30.719 -34.477,-32.547 -5.234,1.68 -13.109,3.352 -13.469,10.305 11.367,18.695 31.75,27.172 43.93,48.484 1.516,2.657 2.898,5.508 4.133,8.594 -0.032,2.43 0.531,4.281 1.437,5.867 1.055,1.844 2.555,3.282 4.063,4.742 1.5,1.469 3.023,2.938 4.109,4.844 1.266,2.227 1.969,5.024 1.352,9.047 -2.797,12.172 -8.164,10.383 -15.61,6.82 -0.211,2.258 0.086,3.782 0.711,4.883 2.055,3.586 7.656,2.516 10.352,6.555 3.492,20.078 -14.539,0.734 -22.711,11.109 1.398,1.758 4.015,0.907 6.672,0.938 4.515,3.086 7.156,5.664 8.445,7.914 6.109,10.719 -18.133,14.047 -17.562,27.719 l 0.07,0.117 c 1.383,2.437 3.445,2.523 5.508,2.656 2.078,0.109 4.172,0.281 5.656,2.875 0.101,0.18 0.195,0.359 0.289,0.563 1.789,11.343 -3.039,22.617 -9.391,28.664 2.633,5.406 4.539,10.242 6.821,14.226 4,7.008 9.156,11.485 21.421,12.18 -4.14,12.164 6.172,20.937 -1.359,31.328 7.758,5.844 19.531,-5.375 26.383,6.609 0.391,0.711 0.797,1.485 1.156,2.368 0.078,0.14 0.141,0.25 0.235,0.382 7.328,12.844 -6.157,16.243 -4.336,28.344 9.054,10.524 10.062,-12.984 16.531,-16.391 10.125,4.446 20.156,7.141 28.555,17.672 3.078,9.883 -4.563,21.368 -0.899,27.789 0.883,1.516 2.399,2.766 4.859,3.625 0.649,-12.406 7.477,-22.086 10.032,-33.242 2.437,9.156 4.789,17.727 6.492,31.539 3.336,3.391 6.516,-2.601 10.07,-2.453 1.727,6.188 -1.234,15.985 5.539,18.953 6.133,-9.648 12.344,-0.625 19.727,-2.172 6.945,-1.875 1.406,19.868 6.25,16.719 5.719,-3.453 -1.203,-11.656 2.922,-16.172 3.851,-3.781 10.086,-2.414 14.25,-2.234 l 3.179,12.242 c 6.969,-9.758 17.25,-21.773 28.938,-27.195 1.695,4.062 2.531,11.164 7.758,11.312 1.883,-5.109 -1.805,-9.672 -1.047,-15.656 7.086,-1.273 9.265,-7.656 10.719,-14.125 22.086,5.797 39.07,20.469 61.789,27.211 l 7.718,-6.742 c 6,0.89 9.289,8.047 13.852,10.531 7.172,-2.836 -6.367,-7.117 0.281,-10.625 8.867,-1.773 18.961,4.992 26.813,5.953 -1.414,-3.008 -5.133,-7.25 -8.508,-9.328 1.922,-5.008 9.148,-8.328 12.516,-10.344 3.398,2.11 8.632,4.282 11.843,3.266 1.485,-6.172 -15.328,-8.969 -5.836,-15.133 2.149,-6.445 10.125,2.211 13.164,-1.922 0.836,-5.867 -6.203,-4.015 -8.711,-7.867 -0.32,-1.391 -0.171,-2.312 0.165,-3.07 0.859,-0.782 1.867,-1.477 3.078,-2.063 2.148,-0.422 4.781,-0.375 6.734,-0.945 5.844,1.344 8.32,6.07 10.984,10.562 13.727,1.68 -1.586,-10.679 0.477,-15.836 5.703,-0.765 12,-0.937 17.977,-0.101 5.789,0.828 11.273,2.617 15.718,5.766 -0.148,-7.438 -13.937,-12.844 -14.328,-21.211 4.594,-3.633 1.836,-18.399 10.508,-17.188 1.461,0.211 3.242,0.883 5.437,2.117 7.141,-5.203 -8.25,-7.32 -8.5,-13.367 0.75,-2.937 3.352,-2.953 5.993,-2.578 0.445,0.062 0.882,0.133 1.304,0.203 0.446,0.07 0.86,0.156 1.274,0.211 1.437,0.211 2.687,0.25 3.445,-0.312 -0.492,0 -0.969,-0.024 -1.43,-0.086 -7.757,-1.11 -8.39,-12.196 -12.453,-17.868 0.336,-4.64 3.742,-4.601 7.719,-4.031 0.477,0.063 0.961,0.141 1.453,0.219 0.5,0.086 0.985,0.148 1.485,0.219 3.585,0.515 7.125,0.672 9.015,-2.219 -1.25,-1.234 -2.851,-1.805 -4.625,-2.055 -1.484,-0.219 -3.078,-0.211 -4.703,-0.211 -1.609,0.016 -3.203,0.016 -4.727,-0.195 -2.468,-0.352 -4.679,-1.297 -6.093,-3.813 11.179,-5.257 32.562,-6.875 35.343,-21.789 15.094,1.204 34.375,0.993 42.336,-6.554 1.704,-4.664 4.875,-11.219 0.118,-15.336 m -405.524,89.375 c 0.156,2.187 0.789,4.383 2.055,6.578 -1.266,-2.195 -1.899,-4.391 -2.055,-6.578" />
  </g>
  <g
     id="g8635"
     transform="matrix(0.24467438,0,0,0.28133956,-196.10398,-298.89393)">
    <path
       style="fill:#fae938"
       inkscape:connector-curvature="0"
       id="path53"
       d="m 1228.643,1156.717 c 3.633,-0.172 6.508,-1.805 8.875,-4.125 3.5,-3.399 5.953,-8.235 8.117,-11.992 -2.195,-6.5 -4.398,-6.711 -6.789,-4.391 -1.422,1.391 -2.922,3.695 -4.531,6.125 -1.586,2.445 -3.289,4.953 -5.102,6.734 -0.882,0.852 -1.781,1.524 -2.718,1.922 -0.867,2.594 -0.469,4.203 2.148,5.727" />
    <path
       style="fill:#fae938"
       inkscape:connector-curvature="0"
       id="path55"
       d="m 901.503,1128.662 c 7.75,-1.156 4.921,-8.398 4.625,-13.773 0.015,-4.008 -3.063,-8.586 -8.688,-8.993 -5.523,-0.64 -5.641,5.329 -5.406,8.344 0.265,5.711 5.578,10.711 9.469,14.422" />
    <path
       style="fill:#fae938"
       inkscape:connector-curvature="0"
       id="path57"
       d="m 995.44,1513.6 c -5.523,-0.641 -5.641,5.328 -5.406,8.343 0.265,5.711 5.578,10.711 9.469,14.414 7.75,-1.148 4.921,-8.39 4.625,-13.765 0.015,-4.008 -3.063,-8.586 -8.688,-8.992" />
    <path
       style="fill:#fae938"
       inkscape:connector-curvature="0"
       id="path59"
       d="m 800.464,1192.045 c -0.453,-2.406 -0.617,-5.523 -2.43,-6.797 0,2.578 1.196,4.75 2.43,6.797" />
    <path
       style="fill:#fae938"
       inkscape:connector-curvature="0"
       id="path61"
       d="m 802.229,1195.131 c -0.5,-1.008 -1.133,-2.039 -1.766,-3.086 0.289,1.57 0.704,2.852 1.766,3.086" />
    <path
       style="fill:#fae938"
       inkscape:connector-curvature="0"
       id="path63"
       d="m 817.198,1113.076 c 2.102,-2.992 5.398,-5.383 6.586,-8.68 -4.484,2.985 -10.18,7.782 -12.281,12.867 2.101,-0.601 5.101,-2.085 5.695,-4.187" />
    <path
       style="fill:#fae938"
       inkscape:connector-curvature="0"
       id="path65"
       d="m 857.034,1245.443 c 0,2.414 2.297,6.079 3.531,8.243 -0.609,-3.289 -0.453,-6.961 -3.531,-8.243" />
    <path
       style="fill:#fae938"
       inkscape:connector-curvature="0"
       id="path67"
       d="m 860.565,1253.686 c 0.109,0.554 0.18,1.125 0.359,1.64 0.789,0.453 0.414,-0.312 -0.359,-1.64" />
    <path
       style="fill:#fae938"
       inkscape:connector-curvature="0"
       id="path69"
       d="m 1162.034,1104.396 c -2.406,3.883 2.094,8.086 2.383,12.281 0,-4.195 -1.196,-8.687 -2.383,-12.281" />
    <path
       style="fill:#fae938"
       inkscape:connector-curvature="0"
       id="path71"
       d="m 1172.503,1146.318 0,4.196 c 1.5,2.086 1.5,6.586 2.406,9.289 -0.906,-2.703 -0.906,-9.891 -2.406,-13.485" />
    <path
       style="fill:#fae938"
       inkscape:connector-curvature="0"
       id="path73"
       d="m 827.518,1470.037 -1.578,0.633 c 0.711,0.242 1.172,-0.148 1.578,-0.633" />
    <path
       style="fill:#fae938"
       inkscape:connector-curvature="0"
       id="path75"
       d="m 788.69,1454.123 c -2.047,0.586 -4.07,1.289 -5.813,2.508 2.789,0.281 4.461,-0.914 5.813,-2.508" />
    <path
       style="fill:#fae938"
       inkscape:connector-curvature="0"
       id="path77"
       d="m 1252.174,1333.686 c -3.015,-9.579 4.172,-11.977 3.618,-20.961 29.359,-15.602 -19.805,-7.211 -4.805,-30.586 2.969,-1.797 9.601,-3 7.203,-8.985 l -11.398,-1.203 c -9.024,0 -2.399,-11.406 -6,-16.187 -11.993,-5.407 -12.579,-19.789 -13.789,-31.782 -1.211,-6.601 -1.813,3.594 -6,0 -7.211,1.805 -8.985,-4.203 -9.602,-9.585 13.203,-10.805 23.398,-25.79 32.992,-37.18 3.57,-3.602 7.781,-1.797 7.781,-7.781 -4.211,4.179 -13.203,7.781 -13.773,13.781 -14.992,8.39 -22.773,26.961 -41.984,26.961 -10.196,-1.18 -11.993,-10.774 -12.618,-18.571 -6.546,-4.796 -10.164,4.204 -16.75,3 -10.187,-5.406 -6.625,-19.187 -7.812,-27.578 -5.992,7.188 -17.367,3.586 -23.367,1.203 1.179,10.352 -6.633,10.641 -14.649,10.204 -0.054,-0.266 -0.078,-0.508 -0.195,-0.805 l -8.867,-0.938 c -7.016,0 -1.86,-8.875 -4.664,-12.601 -9.336,-4.211 -9.797,-15.399 -10.735,-24.727 -0.945,-5.133 -1.406,2.789 -4.664,0 -5.609,1.399 -7,-3.273 -7.484,-7.468 10.281,-8.399 18.211,-20.063 25.687,-28.922 2.782,-2.805 6.047,-1.399 6.047,-6.063 -3.265,3.258 -10.265,6.063 -10.711,10.735 -11.656,6.523 -17.726,20.976 -32.672,20.976 -7.945,-0.914 -9.335,-8.383 -9.82,-14.453 -5.094,-3.742 -7.898,3.266 -13.031,2.336 -7.938,-4.203 -5.149,-14.93 -6.078,-21.461 -4.664,5.594 -13.516,2.797 -18.188,0.93 1.391,12.133 -13.062,6.531 -20.07,7.929 -3.742,-1.398 -3.742,-4.664 -4.68,-7.929 -6.047,-6.532 -13.047,1.39 -18.164,-2.789 0,5.117 0,11.656 -5.148,12.593 -7.93,0.93 -8.375,-10.734 -16.328,-10.734 -0.469,-9.797 -3.719,-16.797 -6.532,-24.734 2.336,11.203 7.454,20.531 6.532,33.593 0.922,2.321 -2.328,4.68 -4.657,3.743 -1.875,2.312 -5.14,3.25 -3.742,7.921 -1.398,5.594 -8.851,4.672 -12.601,4.672 l 0.953,-10.742 c -6.547,-1.851 -14.485,-4.195 -21.953,-1.851 l -10.711,-17.266 c 0.461,9.789 13.054,13.062 9.781,23.789 6.078,-1.398 5.609,6.07 9.328,7.93 2.336,3.734 0.477,8.859 -2.789,10.726 -3.266,-0.929 -7.469,-6.523 -12.594,-3.273 0.469,1.406 -0.453,4.211 1.407,4.211 5.117,4.203 -1.86,8.883 -2.352,12.125 -6.047,4.211 -8.406,20.078 -20.977,12.601 l 0,-0.937 c -2.804,0.476 -7.468,-2.797 -8.398,0.937 4.187,2.328 8.859,6.539 12.109,10.735 -4.64,3.734 -4.172,12.125 -2.804,18.195 -2.328,8.398 -12.118,-0.469 -17.25,1.867 -0.922,8.86 14,1.391 13.539,11.664 -5.133,14.453 -18.196,-4.203 -28.922,2.789 l 0,2.805 c 8.414,3.266 22.398,0.461 25.195,9.797 0,1.398 0.445,3.734 -1.867,3.734 l 0,13.516 c -3.258,5.14 -8.406,5.609 -14.461,6.547 -0.953,2.336 0.938,4.203 1.859,4.672 4.664,2.453 9.289,5.187 12.875,8.843 1.813,6 3.454,12.086 3.641,19.055 -3.734,2.617 -10.297,2.898 -12.781,6.633 -4.594,-1.531 -6.906,-0.016 -8.688,2.234 -5.922,-1.656 -12.711,-3.258 -19.195,-1.226 l -10.406,-16.766 c 0.461,9.516 12.695,12.688 9.508,23.109 5.906,-1.359 5.453,5.899 9.062,7.704 2.281,3.625 0.461,8.609 -2.711,10.421 -3.164,-0.898 -7.25,-6.343 -12.242,-3.179 0.461,1.367 -0.438,4.078 1.383,4.078 4.968,4.086 -1.821,8.625 -2.289,11.789 -5.875,4.086 -8.164,19.5 -20.368,12.234 l 0,-0.906 c -2.726,0.461 -7.265,-2.719 -8.179,0.906 4.094,2.266 8.625,6.36 11.781,10.422 -4.5,3.641 -4.062,11.781 -2.719,17.68 -2.273,8.156 -11.773,-0.461 -16.765,1.82 -0.907,8.602 13.593,1.352 13.156,11.32 -5,14.04 -17.672,-4.078 -28.094,2.711 l 0,2.727 c 8.172,3.18 21.75,0.445 24.461,9.516 0,1.351 0.445,3.625 -1.82,3.625 l 0,13.132 c -3.156,4.985 -8.156,5.438 -14.039,6.352 -0.914,2.266 0.914,4.086 1.82,4.539 8.602,4.531 17.211,9.961 18.578,20.844 1.36,9.5 -11.328,7.25 -14.969,12.695 -7.539,-2.523 -8.796,3.399 -11.859,7 3.281,-0.945 6.633,-1.531 9.141,-2.93 7.265,-2.718 14.968,-11.789 21.304,-3.179 0.899,4.523 -0.914,7.258 -4.523,8.617 -1.813,5.437 2.726,3.172 3.609,7.25 -0.437,4.531 -5.422,2.266 -6.328,5.891 0.906,0 2.258,-0.461 2.719,0.898 -5,3.187 -9.516,8.156 -14.953,9.977 l 2.719,0 c 7.234,-4.071 16.757,-9.977 19.468,-15.868 l -0.906,-0.898 3.203,-1.813 c 4.055,-0.453 2.703,4.524 4.524,6.797 -0.43,0.211 -0.766,0.735 -1.149,1.172 l 2.938,-1.172 c 6.351,5.891 0.906,10.875 0,18.578 l 2.711,0 c 4.539,1.805 2.289,-3.632 5.445,-4.976 2.266,0.437 4.547,-0.477 5.891,1.344 0,0.898 0,1.812 -0.899,2.718 2.274,6.352 9.063,7.703 15.852,5.446 7.703,10.422 -5.891,14.484 -5.891,23.117 0.922,-8.156 10.883,-4.539 15.875,-8.156 7.25,-3.633 15.859,7.242 22.664,2.711 7.227,12.226 17.649,0 29.891,3.625 6.804,6.796 2.273,15.859 3.625,25.375 0.468,-1.36 -0.914,-3.18 0.906,-3.625 2.711,-1.352 4.992,-4.993 2.711,-6.805 l 0.914,0 -0.914,-9.055 c -0.891,-15.859 21.766,-0.898 29.937,-9.515 3.633,-0.454 7.227,0.906 8.125,2.71 l -2.695,-7.242 c 1.797,-5.429 10.867,-4.078 12.211,-5.429 1.383,-14.063 12.242,2.711 15.859,-3.18 -4.046,-11.797 6.813,-10.883 7.266,-19.484 6.609,-5.29 12.344,2.21 18.102,1.796 -3.235,4.711 -8.102,9.024 -8.102,14.969 1.234,-10.781 14.391,-6 21,-10.781 9.578,-4.805 20.984,9.586 29.992,3.578 9.555,16.188 23.36,0 39.531,4.797 9.032,9 3.024,20.984 4.79,33.578 0.656,-1.797 -1.18,-4.195 1.218,-4.797 3.594,-1.797 6.594,-6.594 3.594,-9 l 1.203,0 -1.203,-11.976 c -1.187,-20.985 28.781,-1.196 39.594,-12.602 4.804,-0.594 9.578,1.203 10.765,3.594 l -3.562,-9.578 c 2.375,-7.196 14.359,-5.407 16.148,-7.196 1.821,-18.593 16.203,3.586 21.008,-4.195 -5.383,-15.602 8.969,-14.398 9.594,-25.781 8.984,-7.211 16.781,3.594 24.601,2.39 0,-7.203 -9.007,-7.203 -10.804,-13.187 3.594,-0.594 2.984,-4.203 4.773,-6.602 7.227,-7.789 13.211,4.805 19.813,2.399 1.773,-8.406 -7.196,-7.781 -9.602,-14.391 11.375,-4.781 -1.203,-22.172 14.399,-22.172 0.586,0.586 1.773,1.203 1.171,2.407 l 11.415,0 c 1.21,-12.008 -18,-1.821 -13.782,-16.188 -3.601,-13.797 10.75,-15.609 18.563,-15 3.023,-10.203 -9,-4.797 -11.985,-9.602 -0.609,-20.984 20.375,-0.601 29.375,-12.585 -6.593,-6 -22.781,3 -29.375,-7.211 m -363.484,-67.414 c 0.133,0.898 0.023,1.593 -0.078,2.304 -0.727,-0.273 -1.508,-0.453 -2.422,-0.453 -0.234,-4.875 -1.18,-9.023 -2.398,-12.953 2.507,3 4.328,6.578 4.898,11.102 m -22.891,26.32 0.68,-7.539 c 1.43,-0.422 2.828,-0.875 4,-1.524 5.227,-1.953 10.68,-6.992 15.711,-6.882 l 0,0.078 c 0.914,2.257 -2.266,4.539 -4.516,3.625 -1.812,2.257 -4.984,3.172 -3.625,7.711 -1.359,5.421 -8.609,4.531 -12.25,4.531 m 152.641,185.633 c -0.531,-4.789 -6.766,-5.024 -8.062,-9.36 2.578,-0.429 2.32,-2.89 3.453,-4.687 1.289,-0.235 2.593,-0.531 3.914,-0.969 4.664,6.305 3.398,10.844 0.695,15.016" />
  </g>
  <path
     d="m 176.64614,40.182973 c 0.0345,-0.925338 -0.15856,-1.791295 -0.68828,-2.573707 0.52972,0.782412 0.72277,1.648369 0.68828,2.573707 m -39.31429,68.029317 0,0 c 0.44923,0.95375 1.06091,1.56255 1.96523,1.56255 -0.90432,0 -1.516,-0.6088 -1.96523,-1.56255 m -19.57002,0.73403 c 2.2001,0.95821 4.54946,1.60222 6.86997,1.60222 -2.32246,0 -4.66987,-0.64401 -6.86997,-1.60222 m 76.15098,-23.140203 c -0.42991,-0.630742 -0.8275,-1.323122 -1.1945,-2.094572 -0.044,-0.665907 -0.22194,-1.138576 -0.47615,-1.516682 -0.29628,-0.437485 -0.69387,-0.738527 -1.09514,-1.041791 -0.39956,-0.303312 -0.79912,-0.61333 -1.10691,-1.066003 -0.36116,-0.527517 -0.58674,-1.25055 -0.52753,-2.395918 0.42255,-3.514468 1.77587,-3.362836 3.6662,-2.861746 0.004,-0.63078 -0.10127,-1.032824 -0.27696,-1.294464 -0.5794,-0.852732 -1.92317,-0.204541 -2.66867,-1.138585 -1.2865,-5.283862 3.53261,-1.12085 5.30454,-4.490479 -0.38047,-0.391339 -0.99779,0.0066 -1.64763,0.167135 -1.16808,-0.556213 -1.86954,-1.096923 -2.23266,-1.635446 -1.72423,-2.545252 4.12495,-5.000234 3.69117,-8.714744 -0.007,-0.0109 -0.008,-0.01562 -0.0192,-0.02652 -0.38975,-0.582405 -0.89646,-0.474656 -1.40293,-0.378148 -0.51042,0.10131 -1.02277,0.189078 -1.44138,-0.430731 -0.0285,-0.04165 -0.0573,-0.0858 -0.0839,-0.13418 -0.68072,-2.995698 0.25617,-6.395971 1.67623,-8.455397 -0.75871,-1.316641 -1.32834,-2.521081 -1.97256,-3.470584 -1.126,-1.666094 -2.48514,-2.564963 -5.49195,-1.976154 0.74943,-3.595786 -1.95739,-5.347417 -0.34401,-8.675388 -2.01856,-1.107599 -4.65273,2.714644 -6.58321,-0.136115 -0.1128,-0.169083 -0.22756,-0.356205 -0.33447,-0.57366 -0.0211,-0.03279 -0.0401,-0.05938 -0.0651,-0.09003 -2.06431,-3.057614 1.15658,-4.84663 0.44923,-8.049123 -2.43721,-2.312046 -2.17712,4.2004 -3.68357,5.547719 -2.56713,-0.571397 -5.077,-0.679148 -7.35345,-3.0331 -0.96549,-2.514619 0.65376,-6.147831 -0.38046,-7.675233 -0.24665,-0.360671 -0.64424,-0.604592 -1.26155,-0.685899 0.10693,3.444159 -1.35354,6.53242 -1.73572,9.756857 -0.79129,-2.358473 -1.55222,-4.560794 -2.26325,-8.24016 -0.88694,-0.714317 -1.53312,1.13408 -2.40857,1.316392 -0.55418,-1.584511 -0.0402,-4.461765 -1.75676,-4.846353 -1.29212,3.035373 -3.00289,0.958241 -4.77114,1.8484 -1.65719,0.960495 -0.77415,-5.356428 -1.88841,-4.184928 -1.32099,1.309918 0.54661,3.123432 -0.36701,4.624657 -0.85636,1.278967 -2.40661,1.3012 -3.42739,1.516423 l -1.04183,-3.154102 c -1.20233,2.514619 -2.91701,5.528039 -4.96983,7.787481 -0.0976,-1.138577 0.30389,-2.200073 0.66894,-3.266074 -1.77584,-3.413485 -1.8791,2.200085 -3.2018,2.68792 -0.1052,-0.136166 -0.19696,-0.296529 -0.32493,-0.380087 -0.92145,-1.092443 -1.80642,-2.33652 -2.48491,-3.69483 -0.72645,-1.470562 -1.22142,-3.037625 -1.27892,-4.60919 -1.45654,1.354086 -0.40322,5.457709 -2.00315,7.031244 -0.58305,-0.162619 -1.34203,0.272613 -2.11227,0.705592 -0.19893,-0.301026 -0.40346,-0.567182 -0.63077,-0.729793 -0.54098,0.468154 -0.57915,0.877217 -0.46463,1.270535 -0.49694,0.191306 -0.96134,0.254892 -1.34572,-0.0066 -0.12037,-0.279374 -0.21777,-0.571686 -0.3861,-0.822076 -0.0803,-0.116474 -0.19867,-0.195811 -0.28871,-0.307784 -0.0898,-0.299066 -0.16808,-0.643989 -0.22363,-1.076967 -0.36873,-0.123233 -0.58281,-0.07033 -0.74527,0.04168 -0.61756,-0.553954 -1.26179,-1.052775 -1.82381,-1.490255 -1.98602,0.688156 -2.15608,1.428645 -1.59992,2.248749 0.33471,0.496565 0.93661,1.021819 1.5598,1.57803 0.54097,0.483622 1.07239,0.99791 1.49104,1.531895 -0.0612,0.151645 -0.11843,0.299063 -0.2256,0.404565 -0.70147,0.347176 -1.10298,-0.239701 -1.43549,-0.914352 -0.0573,-0.11 -0.11085,-0.221981 -0.16246,-0.331981 -0.0536,-0.114225 -0.10326,-0.224229 -0.15488,-0.329725 -0.17961,-0.3649 -0.36311,-0.657216 -0.59261,-0.729799 0.0766,0.114505 0.14535,0.224229 0.20259,0.340702 0.29459,0.595876 0.29068,1.206665 0.1512,1.819987 -0.0536,0 -0.10911,-0.01546 -0.16245,-0.01546 0.0227,0.09256 0.0668,0.198064 0.0954,0.296817 -0.39001,1.320889 -1.38388,2.657261 -1.71272,3.914561 -0.9672,0.747236 -1.48714,-0.03748 -1.98993,-1.050541 -0.0612,-0.116458 -0.1204,-0.243925 -0.18352,-0.369401 -0.0573,-0.127429 -0.12038,-0.250375 -0.18154,-0.380071 -0.45118,-0.907884 -0.9672,-1.743183 -1.83114,-1.663845 -0.0536,0.507534 0.0803,0.971465 0.30388,1.419923 0.18547,0.38009 0.43576,0.744979 0.68632,1.112116 0.24638,0.366863 0.49497,0.729512 0.68802,1.114412 0.31342,0.626249 0.46635,1.296692 0.18546,2.068093 -2.77167,-1.617683 -6.39015,-6.215886 -9.78305,-4.204593 -2.08756,-3.659667 -5.10587,-8.024935 -7.83155,-8.506304 -1.18912,0.439736 -2.97817,0.877217 -3.06234,2.694959 2.58449,4.886022 7.21594,7.099299 9.98394,12.668956 0.34401,0.692383 0.65939,1.435129 0.93857,2.24397 -0.008,0.633043 0.12038,1.118902 0.32688,1.536401 0.23881,0.477154 0.57915,0.854987 0.92121,1.237623 0.34425,0.380099 0.68631,0.766912 0.93489,1.263781 0.29043,0.582367 0.44727,1.309887 0.3078,2.362693 -0.63664,3.182778 -1.85805,2.714643 -3.54606,1.784815 -0.0497,0.586857 0.0191,0.986945 0.15879,1.27475 0.4683,0.936582 1.74135,0.657209 2.35303,1.710248 0.004,0.03279 0.004,0.05262 0.008,0.08132 -0.36506,0.05485 -0.73598,0.149369 -1.09345,0.149369 -1.28821,0 -2.48687,-0.378107 -3.41395,-1.325386 -0.0593,1.24832 0.50844,2.200089 1.14117,3.147368 -0.6709,-0.03279 -1.31317,0.138671 -1.80056,0.850732 0.31734,0.459467 0.91191,0.239436 1.51576,0.246189 0.94053,0.73853 1.49104,1.358295 1.80447,1.912286 0.0691,0.331682 0.10717,0.683361 0.0957,1.063737 -0.24859,0.35815 -0.42427,0.920809 -0.57156,1.553846 -1.24442,1.296965 -3.48466,2.479426 -3.40049,4.778521 0.006,0.01562 0.008,0.01954 0.0151,0.03083 0.0556,0.112244 0.12039,0.18259 0.18155,0.259422 -0.0553,-0.0375 -0.0993,-0.05068 -0.15658,-0.09455 -1.72424,2.340752 1.69535,2.321038 1.61509,4.582729 -0.23318,1.147321 -0.81819,1.290252 -1.40687,1.290252 -0.0994,0 -0.19501,-0.0038 -0.29044,-0.0066 -0.0957,-0.0038 -0.19133,-0.01092 -0.2848,-0.01092 -0.31539,0 -0.59848,0.04835 -0.78003,0.303265 0.11083,-0.03078 0.21801,-0.04199 0.31931,-0.04199 0.8774,0 1.28063,1.070487 1.56933,2.378192 -0.10324,0.131912 -0.19109,0.305535 -0.29825,0.421992 0.27918,0.659466 0.51797,1.277289 0.75115,1.86387 0.10717,0.518815 0.22755,1.006939 0.38635,1.398002 -0.17789,1.756123 -0.94445,1.927703 -1.82944,1.927703 -0.1052,0 -0.21604,-0.0038 -0.32492,-0.0066 -0.10889,0 -0.21802,0 -0.32884,0 -0.7952,0 -1.58843,0.129414 -2.07974,1.318667 0.25421,0.40231 0.60214,0.525255 0.99778,0.525255 0.32884,0 0.68828,-0.08578 1.05137,-0.173613 0.36334,-0.09005 0.72643,-0.175797 1.06286,-0.175797 0.55052,0 1.02445,0.237446 1.29018,1.105671 -2.63784,2.580415 -7.49683,4.340756 -8.454492,10.106254 -3.373817,0.34941 -7.726324,1.463789 -9.689591,4.725389 -0.485436,1.85289 -1.349624,4.49044 -0.365055,5.78291 4.37746,-0.20647 8.506351,-4.84212 13.386378,-4.84212 0.60581,0 1.22533,0.0749 1.85806,0.23292 0.35354,0.42652 0.71103,0.57366 1.07412,0.57366 0.4206,0 0.84487,-0.202 1.27304,-0.40203 0.43406,-0.20001 0.86419,-0.40455 1.29995,-0.40455 0.50648,0 1.02078,0.27712 1.5329,1.14307 1.4147,2.90989 0.39,4.20911 -1.18497,5.82231 0.30194,0.44624 0.57157,0.61754 0.82188,0.61754 0.82381,0 1.45286,-1.84838 2.43523,-1.96935 3.47143,2.38041 -1.94198,4.45978 -1.55025,8.67116 0.45876,-0.11649 0.69976,-1.04206 1.07998,-1.83095 1.09345,-0.81982 1.84461,-1.16927 2.36282,-1.16927 2.44846,0 -0.47026,7.80495 1.63809,9.96985 l 0.0268,0 c 0.56005,0 0.86028,-0.60009 1.17174,-1.19568 0.30779,-0.59787 0.6271,-1.1957 1.22142,-1.1957 0.0422,0 0.0862,0.004 0.12625,0.0109 1.93635,1.40022 2.93047,4.76305 2.93047,7.68844 1.17737,0.13644 2.15998,0.39357 3.07751,0.39357 1.59992,0 2.99531,-0.78042 4.82082,-4.31687 1.22336,3.30798 3.98158,1.73195 4.4653,5.74552 1.95544,-1.31443 1.94981,-6.74117 4.69286,-6.74117 0.16418,0 0.33055,0.0156 0.51406,0.0571 0.0326,0 0.0592,-0.004 0.0898,-0.004 2.94002,0 1.54463,4.60466 3.59574,6.12588 2.84238,-0.90562 -0.50672,-5.21578 -0.10325,-7.72588 1.66672,-1.81352 3.18443,-3.75196 5.12274,-4.83564 l 0.16051,0.72104 c 0.22558,-0.36066 0.49521,-0.74752 0.74748,-1.12535 0.21042,-0.0748 0.39393,-0.21324 0.61755,-0.27035 1.8999,0.76691 2.52896,5.00473 3.99873,5.00473 0.34988,0 0.74748,-0.23968 1.22165,-0.82658 -0.86614,-1.14501 -1.41666,-2.62855 -1.91359,-4.1607 0.17592,-1.20443 -0.37656,-2.86827 0.29068,-3.53422 1.09515,0.59112 2.2554,1.30766 3.69873,2.47497 0.36505,-0.15616 0.50648,-0.56269 0.59627,-1.02438 0.22364,-0.35616 0.241,-0.69461 0.16076,-1.02856 0.0457,-0.50331 0.10691,-1.00018 0.29995,-1.37379 0.88329,0.40878 1.69365,1.9781 2.64935,2.03748 -0.0764,0.76722 -0.28285,1.55186 -0.47785,2.32977 2.1984,3.10568 1.82943,-2.89473 3.23434,-3.73199 0.58674,0.45494 1.1698,0.9757 1.72227,1.54514 -0.0823,0.94725 0.0898,1.82195 0.48372,2.61112 0.66135,1.32312 1.76802,2.44427 2.60921,3.39574 0.0668,-0.007 0.0954,-0.0219 0.15855,-0.0285 0.0286,0.15616 0.10129,0.30331 0.12038,0.46365 0.12821,-0.16034 0.20651,-0.35363 0.29067,-0.54266 1.26154,-0.2462 1.43943,-0.81986 1.04942,-1.60449 -0.14534,-0.29457 -0.36702,-0.61783 -0.61757,-0.9563 0.0365,-1.72095 -0.0803,-3.60676 0.85074,-4.83763 1.57129,0.0242 3.99896,-4.08812 5.35616,-2.09262 0.2273,0.33849 0.42231,0.85305 0.58282,1.58256 2.35131,0.14292 -0.0649,-3.39126 1.08977,-4.90349 0.72253,-0.5607 1.20404,-0.0552 1.61706,0.55593 0.0707,0.10327 0.13579,0.20231 0.20259,0.30554 0.0651,0.10326 0.12796,0.20453 0.19696,0.30104 0.22167,0.332 0.44336,0.58686 0.6939,0.59787 -0.0937,-0.0923 -0.17593,-0.19556 -0.24663,-0.29878 -1.21384,-1.7913 0.87348,-4.59823 1.25395,-6.7699 0.98066,-1.05277 1.60189,-0.37362 2.22507,0.54524 0.0744,0.11001 0.14901,0.22425 0.22534,0.33844 0.0766,0.11423 0.15122,0.23072 0.22951,0.34718 0.56006,0.82657 1.18325,1.56058 2.10469,1.23088 0.0172,-0.54498 -0.16834,-0.99569 -0.44164,-1.40445 -0.23513,-0.34492 -0.53142,-0.65721 -0.82969,-0.97148 -0.29826,-0.3165 -0.59431,-0.62851 -0.83336,-0.97793 -0.38609,-0.57166 -0.60606,-1.23312 -0.37093,-2.11904 3.11398,0.92531 7.38232,4.73242 10.86134,1.6748 2.54607,3.25539 6.14939,6.99184 9.11804,6.73473 1.24048,-0.79565 3.1272,-1.7539 3.06796,-3.68387 -3.17879,-4.40467 -8.33997,-5.43127 -11.77127,-10.501852"
     id="path9"
     inkscape:connector-curvature="0"
     style="fill:#f7c024" />
</svg>
