<?xml version="1.0" encoding="UTF-8" standalone="no"?>
<svg
   xmlns:dc="http://purl.org/dc/elements/1.1/"
   xmlns:cc="http://creativecommons.org/ns#"
   xmlns:rdf="http://www.w3.org/1999/02/22-rdf-syntax-ns#"
   xmlns:svg="http://www.w3.org/2000/svg"
   xmlns="http://www.w3.org/2000/svg"
   xmlns:sodipodi="http://sodipodi.sourceforge.net/DTD/sodipodi-0.dtd"
   xmlns:inkscape="http://www.inkscape.org/namespaces/inkscape"
   version="1.1"
   viewBox="0 0 512 512"
   stroke-miterlimit="10"
   id="svg8378"
   inkscape:version="0.91 r13725"
   sodipodi:docname="fliox-512x512.svg"
   width="512"
   height="512"
   style="fill:none;stroke:none;stroke-linecap:square;stroke-miterlimit:10"
   inkscape:export-filename="G:\_dev\Unity\HoverLab\Assets\Friflo\Json\Fliox.Hub.Explorer\www~\explorer\img\fliox-512x512.png"
   inkscape:export-xdpi="90"
   inkscape:export-ydpi="90">
  <metadata
     id="metadata8429">
    <rdf:RDF>
      <cc:Work
         rdf:about="">
        <dc:format>image/svg+xml</dc:format>
        <dc:type
           rdf:resource="http://purl.org/dc/dcmitype/StillImage" />
        <dc:title></dc:title>
      </cc:Work>
    </rdf:RDF>
  </metadata>
  <defs
     id="defs8427">
    <defs
       id="defs8399">
      <filter
         filterUnits="userSpaceOnUse"
         id="shadowFilter-p.1">
        <feGaussianBlur
           id="feGaussianBlur8402"
           result="blur"
           stdDeviation="4.5"
           in="SourceAlpha" />
        <feComponentTransfer
           id="feComponentTransfer8404"
           in="blur"
           style="color-interpolation-filters:sRGB">
          <feFuncR
             id="feFuncR8406"
             intercept="0.0"
             slope="0"
             type="linear" />
          <feFuncG
             id="feFuncG8408"
             intercept="0.0"
             slope="0"
             type="linear" />
          <feFuncB
             id="feFuncB8410"
             intercept="0.0"
             slope="0"
             type="linear" />
          <feFuncA
             id="feFuncA8412"
             intercept="0"
             slope="0.24"
             type="linear" />
        </feComponentTransfer>
      </filter>
    </defs>
    <filter
       style="color-interpolation-filters:sRGB"
       inkscape:label="Drop Shadow"
       id="filter12944">
      <feFlood
         flood-opacity="0.498039"
         flood-color="rgb(0,0,0)"
         result="flood"
         id="feFlood12946" />
      <feComposite
         in="flood"
         in2="SourceGraphic"
         operator="in"
         result="composite1"
         id="feComposite12948" />
      <feGaussianBlur
         in="composite1"
         stdDeviation="3"
         result="blur"
         id="feGaussianBlur12950" />
      <feOffset
         dx="6"
         dy="6"
         result="offset"
         id="feOffset12952" />
      <feComposite
         in="SourceGraphic"
         in2="offset"
         operator="over"
         result="composite2"
         id="feComposite12954" />
    </filter>
  </defs>
  <sodipodi:namedview
     pagecolor="#ffffff"
     bordercolor="#666666"
     borderopacity="1"
     objecttolerance="10"
     gridtolerance="10"
     guidetolerance="10"
     inkscape:pageopacity="0"
     inkscape:pageshadow="2"
     inkscape:window-width="2560"
     inkscape:window-height="1351"
     id="namedview8425"
     showgrid="false"
     inkscape:zoom="1.9975767"
     inkscape:cx="119.46319"
     inkscape:cy="251.08168"
     inkscape:window-x="-9"
     inkscape:window-y="-9"
     inkscape:window-maximized="1"
     inkscape:current-layer="svg8378" />
  <clipPath
     id="p.0">
    <path
       d="m 0,0 960,0 0,540 -960,0 0,-540 z"
       id="path8381"
       inkscape:connector-curvature="0"
       style="clip-rule:nonzero" />
  </clipPath>
  <path
     style="fill:#000000;fill-opacity:0;fill-rule:evenodd"
     inkscape:connector-curvature="0"
     id="path8385"
     d="m 0,-28 960,0 0,540 -960,0 z" />
  <g
     id="g8091"
     transform="matrix(9.7896853,0,0,9.7896853,-6.6703172,-4577.1048)">
    <rect
       ry="2.9292421"
       rx="2.905961"
       y="482.12711"
       x="16.081739"
       height="29.784412"
       width="36.838608"
       id="rect8095"
       style="opacity:1;fill:#0000c9;fill-opacity:1;fill-rule:nonzero;stroke:none;stroke-width:23.39999962;stroke-linecap:square;stroke-miterlimit:4;stroke-dasharray:none;stroke-dashoffset:0;stroke-opacity:1" />
    <path
       d="m 15.473237,482.82451 37.626247,0 0,26.9261 -37.626247,0 z"
       id="path8389"
       inkscape:connector-curvature="0"
       style="fill:#000000;fill-opacity:0;fill-rule:evenodd" />
    <g
       transform="matrix(0.21696938,0,0,0.21914985,-27.882484,454.86249)"
       style="filter:url(#filter12944)"
       id="p.1">
      <path
         d="m 131.82677,121.20998 0,0 c 0,-29.223259 23.69014,-52.91339 52.91339,-52.91339 l 0,0 c 14.03351,0 27.49223,5.574791 37.41542,15.497978 9.92317,9.92318 15.49797,23.381902 15.49797,37.415412 l 0,0 c 0,29.22325 -23.69014,52.91338 -52.91339,52.91338 l 0,0 c -29.22325,0 -52.91339,-23.69013 -52.91339,-52.91338 z"
         id="path8415"
         inkscape:connector-curvature="0"
         style="fill:#ffffff;fill-rule:evenodd" />
    </g>
    <path
       d="m 1.4317291,467.23842 32.5009919,0 0,13.37676 -32.5009919,0 z"
       id="path8417"
       inkscape:connector-curvature="0"
       style="fill:#000000;fill-opacity:0;fill-rule:evenodd" />
    <path
       d="m 8.1442197,474.50022 -0.2542627,1.22929 -1.1763795,0 -1.0306046,4.98224 -1.6611718,0 1.0306046,-4.98224 -0.9255111,0 0.2542621,-1.22929 0.9255089,0 0.1322168,-0.63691 q 0.162727,-0.78414 0.3085022,-1.05808 0.1966285,-0.37666 0.5864965,-0.59581 0.393257,-0.21915 1.0238245,-0.21915 0.762782,0 1.6103182,0.28078 l -0.3254536,1.19848 q -0.596666,-0.20203 -0.9661913,-0.20203 -0.2847724,0 -0.4237691,0.18148 -0.091533,0.11643 -0.189848,0.61294 l -0.094924,0.4383 1.1763822,0 z m 0.8572369,0 1.5526874,0 -0.250871,1.20532 q 0.867878,-1.35256 1.88153,-1.35256 0.359356,0 0.769565,0.18148 l -0.633959,1.37654 q -0.227139,-0.0822 -0.481401,-0.0822 -0.430547,0 -0.874657,0.32873 -0.44072,0.3253 -0.69159,0.87317 -0.24748,0.54788 -0.4915707,1.73266 l -0.4034281,1.94838 -1.6611721,0 1.2848665,-6.21153 z m 5.1946614,-2.36271 1.661172,0 -0.311893,1.52035 -1.664563,0 0.315284,-1.52035 z m -0.488181,2.36271 1.661172,0 -1.284867,6.21153 -1.661172,0 1.284867,-6.21153 z"
       id="path8419"
       inkscape:connector-curvature="0"
       style="fill:#ff0000;fill-rule:nonzero" />
    <path
       d="m 3.9977804,477.12144 32.5009856,0 0,13.37677 -32.5009856,0 z"
       id="path8421"
       inkscape:connector-curvature="0"
       style="fill:#000000;fill-opacity:0;fill-rule:evenodd" />
    <path
       d="m 10.71027,484.38324 -0.254262,1.2293 -1.1763791,0 -1.0306046,4.98223 -1.6611718,0 1.0306043,-4.98223 -0.9255107,0 0.254262,-1.2293 0.9255087,0 0.132217,-0.6369 q 0.1627268,-0.78414 0.3085025,-1.05808 0.1966283,-0.37667 0.5864959,-0.59582 0.3932573,-0.21915 1.0238242,-0.21915 0.7627816,0 1.6103186,0.28079 l -0.325454,1.19848 q -0.596665,-0.20203 -0.966191,-0.20203 -0.2847721,0 -0.4237688,0.18148 -0.091533,0.11643 -0.1898486,0.61294 l -0.094924,0.43829 1.1763814,0 z m -0.346265,6.21153 1.776437,-8.57424 1.654391,0 -1.769656,8.57424 -1.661172,0 z m 3.548999,-2.57843 q 0,-1.72581 0.962801,-2.75307 0.966191,-1.02727 2.532438,-1.02727 1.362839,0 2.125623,0.76018 0.766173,0.75675 0.766173,2.03741 0,1.50665 -0.956021,2.60925 -0.956021,1.09918 -2.559561,1.09918 -0.867878,0 -1.539127,-0.34927 -0.671249,-0.3527 -1.003483,-0.99645 -0.328843,-0.64376 -0.328843,-1.37996 z m 4.736034,-1.19848 q 0,-0.59924 -0.345796,-0.95878 -0.342404,-0.35954 -0.888218,-0.35954 -0.539032,0 -0.956021,0.339 -0.416987,0.33557 -0.647517,0.9759 -0.23053,0.64033 -0.23053,1.17793 0,0.66772 0.355964,1.06151 0.359356,0.39036 0.90517,0.39036 0.68481,0 1.14587,-0.59239 0.661078,-0.83551 0.661078,-2.03399 z"
       id="path8423"
       inkscape:connector-curvature="0"
       style="fill:#ff0000;fill-rule:nonzero" />
    <path
       d="m 23.147343,487.68037 1.596717,0 0,5.02409 q 0,0.98402 -0.174526,1.51502 -0.233936,0.69067 -0.846631,1.11028 -0.608981,0.4196 -1.61157,0.4196 -1.173401,0 -1.808373,-0.65725 -0.634975,-0.65726 -0.638687,-1.92721 l 1.51131,-0.17452 q 0.02599,0.68325 0.200518,0.96174 0.25993,0.43074 0.790933,0.43074 0.534714,0 0.757512,-0.30449 0.222797,-0.3082 0.222797,-1.27365 l 0,-5.12435 z m 2.895149,5.35457 1.559583,-0.15225 q 0.141105,0.78351 0.571848,1.15112 0.430742,0.36762 1.158547,0.36762 0.776078,0 1.165975,-0.32677 0.393609,-0.32677 0.393609,-0.76494 0,-0.28221 -0.1671,-0.47901 -0.163385,-0.1968 -0.571847,-0.34534 -0.28221,-0.0965 -1.2848,-0.34534 -1.288512,-0.31934 -1.808373,-0.7835 -0.73152,-0.65725 -0.73152,-1.60043 0,-0.60526 0.341623,-1.13255 0.345338,-0.52729 0.991451,-0.80207 0.649825,-0.2785 1.563296,-0.2785 1.496458,0 2.250256,0.65725 0.7538,0.65354 0.794645,1.74525 l -1.604143,0.0706 q -0.103973,-0.60898 -0.441881,-0.87634 -0.337911,-0.27107 -1.013731,-0.27107 -0.698099,0 -1.09542,0.28964 -0.252504,0.18195 -0.252504,0.49015 0,0.28222 0.237651,0.48273 0.30449,0.25622 1.470464,0.531 1.169687,0.27479 1.730395,0.57185 0.560707,0.29335 0.876338,0.80579 0.319343,0.51243 0.319343,1.26252 0,0.68324 -0.378756,1.28108 -0.378756,0.59413 -1.073143,0.88377 -0.694385,0.28963 -1.726681,0.28963 -1.503885,0 -2.313383,-0.69438 -0.805784,-0.6981 -0.961742,-2.02746 z m 7.477232,-1.3405 q 0,-1.21053 0.360191,-2.03489 0.271069,-0.60526 0.738944,-1.08799 0.471589,-0.48273 1.028584,-0.71295 0.742658,-0.31563 1.708115,-0.31563 1.756387,0 2.80725,1.08799 1.054576,1.088 1.054576,3.02634 0,1.92348 -1.047149,3.00776 -1.043437,1.08429 -2.792397,1.08429 -1.767528,0 -2.814677,-1.07686 -1.043437,-1.08056 -1.043437,-2.97806 z m 1.648702,-0.052 q 0,1.34793 0.623834,2.04603 0.623833,0.69438 1.581863,0.69438 0.95803,0 1.570725,-0.69067 0.616407,-0.69067 0.616407,-2.07202 0,-1.36278 -0.597842,-2.03489 -0.597839,-0.6721 -1.58929,-0.6721 -0.991448,0 -1.600428,0.67953 -0.605269,0.67954 -0.605269,2.04974 z m 7.317445,3.97322 0,-7.9353 1.559584,0 3.245412,5.29887 0,-5.29887 1.489032,0 0,7.9353 -1.607858,0 -3.197138,-5.17633 0,5.17633 -1.489032,0 z"
       id="path35"
       inkscape:connector-curvature="0"
       style="fill:#efefef;fill-rule:nonzero" />
    <path
       d="m 20.37035,508.22515 0,-9.07158 6.216054,0 0,1.53359 -4.385401,0 0,2.14628 3.78756,0 0,1.53731 -3.78756,0 0,3.8544 -1.830653,0 z m 7.715471,0 0,-9.07158 1.737822,0 0,9.07158 -1.737822,0 z m 3.521097,-7.46373 0,-1.60785 1.737822,0 0,1.60785 -1.737822,0 z m 0,7.46373 0,-6.57253 1.737822,0 0,6.57253 -1.737822,0 z m 3.120063,-3.3791 q 0,-0.8652 0.42703,-1.6747 0.427028,-0.81321 1.20682,-1.24024 0.783502,-0.42703 1.748958,-0.42703 1.492744,0 2.443348,0.96917 0.954318,0.96917 0.954318,2.44707 0,1.49274 -0.961745,2.47305 -0.961742,0.98031 -2.421068,0.98031 -0.906044,0 -1.726678,-0.40846 -0.816925,-0.40847 -1.243953,-1.19568 -0.42703,-0.79093 -0.42703,-1.92349 z m 1.782382,0.0928 q 0,0.97659 0.464158,1.49645 0.464163,0.51987 1.143695,0.51987 0.679534,0 1.139982,-0.51987 0.464161,-0.51986 0.464161,-1.50759 0,-0.96546 -0.464161,-1.48532 -0.460448,-0.51986 -1.139982,-0.51986 -0.679532,0 -1.143695,0.51986 -0.464158,0.51986 -0.464158,1.49646 z m 5.524624,3.28626 2.369081,-3.38652 -2.268821,-3.18601 2.12029,0 1.165974,1.80838 1.225387,-1.80838 2.0386,0 -2.224265,3.11174 2.428495,3.46079 -2.131431,0 -1.336786,-2.03488 -1.351639,2.03488 -2.034885,0 z"
       id="path37"
       inkscape:connector-curvature="0"
       style="fill:#efefef;fill-rule:nonzero" />
  </g>
</svg>
