<?xml version="1.0" encoding="UTF-8" standalone="no"?>
<svg
   xmlns:dc="http://purl.org/dc/elements/1.1/"
   xmlns:cc="http://creativecommons.org/ns#"
   xmlns:rdf="http://www.w3.org/1999/02/22-rdf-syntax-ns#"
   xmlns:svg="http://www.w3.org/2000/svg"
   xmlns="http://www.w3.org/2000/svg"
   xmlns:sodipodi="http://sodipodi.sourceforge.net/DTD/sodipodi-0.dtd"
   xmlns:inkscape="http://www.inkscape.org/namespaces/inkscape"
   version="1.1"
   viewBox="0 0 53 43"
   stroke-miterlimit="10"
   id="svg8378"
   inkscape:version="0.91 r13725"
   sodipodi:docname="Json-Fliox-53x43.svg"
   width="53"
   height="43"
   style="fill:none;stroke:none;stroke-linecap:square;stroke-miterlimit:10">
  <metadata
     id="metadata8429">
    <rdf:RDF>
      <cc:Work
         rdf:about="">
        <dc:format>image/svg+xml</dc:format>
        <dc:type
           rdf:resource="http://purl.org/dc/dcmitype/StillImage" />
        <dc:title />
      </cc:Work>
    </rdf:RDF>
  </metadata>
  <defs
     id="defs8427">
    <defs
       id="defs8399">
      <filter
         filterUnits="userSpaceOnUse"
         id="shadowFilter-p.1">
        <feGaussianBlur
           id="feGaussianBlur8402"
           result="blur"
           stdDeviation="4.5"
           in="SourceAlpha" />
        <feComponentTransfer
           id="feComponentTransfer8404"
           in="blur"
           style="color-interpolation-filters:sRGB">
          <feFuncR
             id="feFuncR8406"
             intercept="0.0"
             slope="0"
             type="linear" />
          <feFuncG
             id="feFuncG8408"
             intercept="0.0"
             slope="0"
             type="linear" />
          <feFuncB
             id="feFuncB8410"
             intercept="0.0"
             slope="0"
             type="linear" />
          <feFuncA
             id="feFuncA8412"
             intercept="0"
             slope="0.24"
             type="linear" />
        </feComponentTransfer>
      </filter>
    </defs>
    <filter
       style="color-interpolation-filters:sRGB"
       inkscape:label="Drop Shadow"
       id="filter12944">
      <feFlood
         flood-opacity="0.498039"
         flood-color="rgb(0,0,0)"
         result="flood"
         id="feFlood12946" />
      <feComposite
         in="flood"
         in2="SourceGraphic"
         operator="in"
         result="composite1"
         id="feComposite12948" />
      <feGaussianBlur
         in="composite1"
         stdDeviation="3"
         result="blur"
         id="feGaussianBlur12950" />
      <feOffset
         dx="6"
         dy="6"
         result="offset"
         id="feOffset12952" />
      <feComposite
         in="SourceGraphic"
         in2="offset"
         operator="over"
         result="composite2"
         id="feComposite12954" />
    </filter>
  </defs>
  <sodipodi:namedview
     pagecolor="#ffffff"
     bordercolor="#666666"
     borderopacity="1"
     objecttolerance="10"
     gridtolerance="10"
     guidetolerance="10"
     inkscape:pageopacity="0"
     inkscape:pageshadow="2"
     inkscape:window-width="2560"
     inkscape:window-height="1351"
     id="namedview8425"
     showgrid="false"
     inkscape:zoom="22.6"
     inkscape:cx="16.792291"
     inkscape:cy="21.581905"
     inkscape:window-x="-9"
     inkscape:window-y="-9"
     inkscape:window-maximized="1"
     inkscape:current-layer="svg8378" />
  <clipPath
     id="p.0">
    <path
       d="m 0,0 960,0 0,540 -960,0 0,-540 z"
       id="path8381"
       inkscape:connector-curvature="0"
       style="clip-rule:nonzero" />
  </clipPath>
  <rect
     style="opacity:1;fill:#0000c9;fill-opacity:1;fill-rule:nonzero;stroke:none;stroke-width:23.39999962;stroke-linecap:square;stroke-miterlimit:4;stroke-dasharray:none;stroke-dashoffset:0;stroke-opacity:1"
     id="rect8095"
     width="36.838608"
     height="29.784412"
     x="16.081739"
     y="13.127092"
     rx="2.905961"
     ry="2.9292421" />
  <path
     style="fill:#000000;fill-opacity:0;fill-rule:evenodd"
     inkscape:connector-curvature="0"
     id="path8385"
     d="m 0,-497 960,0 0,540 -960,0 z" />
  <path
     style="fill:#000000;fill-opacity:0;fill-rule:evenodd"
     inkscape:connector-curvature="0"
     id="path8389"
     d="m 15.473237,13.824513 37.626247,0 0,26.926096 -37.626247,0 z" />
  <g
     id="p.1"
     style="filter:url(#filter12944)"
     transform="matrix(0.21696938,0,0,0.21914985,-27.882484,-14.137512)">
    <path
       style="fill:#ffffff;fill-rule:evenodd"
       inkscape:connector-curvature="0"
       id="path8415"
       d="m 131.82677,121.20998 0,0 c 0,-29.223259 23.69014,-52.91339 52.91339,-52.91339 l 0,0 c 14.03351,0 27.49223,5.574791 37.41542,15.497978 9.92317,9.92318 15.49797,23.381902 15.49797,37.415412 l 0,0 c 0,29.22325 -23.69014,52.91338 -52.91339,52.91338 l 0,0 c -29.22325,0 -52.91339,-23.69013 -52.91339,-52.91338 z" />
  </g>
  <path
     style="fill:#000000;fill-opacity:0;fill-rule:evenodd"
     inkscape:connector-curvature="0"
     id="path8417"
     d="m 1.4317291,-1.7615843 32.5009919,0 0,13.3767673 -32.5009919,0 z" />
  <path
     style="fill:#ff0000;fill-rule:nonzero"
     inkscape:connector-curvature="0"
     id="path8419"
     d="m 8.1442197,5.5002179 -0.2542627,1.2292945 -1.1763795,0 -1.0306046,4.9822346 -1.6611718,0 1.0306046,-4.9822346 -0.9255111,0 0.2542621,-1.2292945 0.9255089,0 0.1322168,-0.6369042 q 0.162727,-0.7841448 0.3085022,-1.0580816 0.1966285,-0.376664 0.5864965,-0.5958138 0.393257,-0.2191497 1.0238245,-0.2191497 0.762782,0 1.6103182,0.2807858 l -0.3254536,1.1984751 q -0.596666,-0.2020296 -0.9661913,-0.2020296 -0.2847724,0 -0.4237691,0.1814847 -0.091533,0.1164232 -0.189848,0.6129339 l -0.094924,0.4382994 1.1763822,0 z m 0.8572369,0 1.5526874,0 -0.250871,1.2053241 q 0.867878,-1.3525646 1.88153,-1.3525646 0.359356,0 0.769565,0.1814827 l -0.633959,1.376535 q -0.227139,-0.082181 -0.481401,-0.082181 -0.430547,0 -0.874657,0.3287245 -0.44072,0.3253018 -0.69159,0.8731741 -0.24748,0.5478743 -0.4915707,1.7326535 l -0.4034281,1.9483807 -1.6611721,0 1.2848665,-6.2115291 z m 5.1946614,-2.3627094 1.661172,0 -0.311893,1.5203521 -1.664563,0 0.315284,-1.5203521 z m -0.488181,2.3627094 1.661172,0 -1.284867,6.2115291 -1.661172,0 1.284867,-6.2115291 z" />
  <path
     style="fill:#000000;fill-opacity:0;fill-rule:evenodd"
     inkscape:connector-curvature="0"
     id="path8421"
     d="m 3.9977804,8.1214406 32.5009856,0 0,13.3767664 -32.5009856,0 z" />
  <path
     style="fill:#ff0000;fill-rule:nonzero"
     inkscape:connector-curvature="0"
     id="path8423"
     d="m 10.71027,15.383245 -0.254262,1.229295 -1.1763791,0 -1.0306046,4.982234 -1.6611718,0 1.0306043,-4.982234 -0.9255107,0 0.254262,-1.229295 0.9255087,0 0.132217,-0.636904 q 0.1627268,-0.784145 0.3085025,-1.058084 0.1966283,-0.376664 0.5864959,-0.595814 0.3932573,-0.219149 1.0238242,-0.219149 0.7627816,0 1.6103186,0.280785 l -0.325454,1.198478 q -0.596665,-0.20203 -0.966191,-0.20203 -0.2847721,0 -0.4237688,0.181484 -0.091533,0.116424 -0.1898486,0.612934 l -0.094924,0.4383 1.1763811,0 z m -0.346265,6.211529 1.776437,-8.574241 1.654391,0 -1.769656,8.574241 -1.661172,0 z m 3.548999,-2.578434 q 0,-1.725805 0.962801,-2.75307 0.966191,-1.027265 2.532438,-1.027265 1.362839,0 2.125623,0.760176 0.766173,0.756751 0.766173,2.037407 0,1.506656 -0.956021,2.609253 -0.956021,1.099175 -2.559561,1.099175 -0.867878,0 -1.539127,-0.34927 -0.671249,-0.352696 -1.003483,-0.996448 -0.328843,-0.643753 -0.328843,-1.379958 z m 4.736034,-1.198476 q 0,-0.599239 -0.345796,-0.95878 -0.342404,-0.359544 -0.888218,-0.359544 -0.539032,0 -0.956021,0.338998 -0.416987,0.335574 -0.647517,0.975901 -0.23053,0.640329 -0.23053,1.17793 0,0.667723 0.355964,1.061507 0.359356,0.390361 0.90517,0.390361 0.68481,0 1.14587,-0.592389 0.661078,-0.835508 0.661078,-2.033984 z" />
  <path
     style="fill:#efefef;fill-rule:nonzero"
     inkscape:connector-curvature="0"
     id="path35"
     d="m 23.147343,18.68037 1.596717,0 0,5.024086 q 0,0.984024 -0.174526,1.515024 -0.233936,0.690673 -0.846631,1.110276 -0.608981,0.419601 -1.61157,0.419601 -1.173401,0 -1.808373,-0.657251 -0.634975,-0.657255 -0.638687,-1.927201 l 1.51131,-0.174524 q 0.02599,0.683246 0.200518,0.961742 0.25993,0.430742 0.790933,0.430742 0.534714,0 0.757512,-0.30449 0.222797,-0.308202 0.222797,-1.273659 l 0,-5.124346 z m 2.895149,5.354571 1.559583,-0.152247 q 0.141105,0.783507 0.571848,1.151121 0.430742,0.367618 1.158547,0.367618 0.776078,0 1.165975,-0.32677 0.393609,-0.32677 0.393609,-0.764939 0,-0.28221 -0.1671,-0.479016 -0.163385,-0.196803 -0.571847,-0.345335 -0.28221,-0.09655 -1.2848,-0.345338 -1.288512,-0.319343 -1.808373,-0.783503 -0.73152,-0.657255 -0.73152,-1.600432 0,-0.605265 0.341623,-1.132553 0.345338,-0.527288 0.991451,-0.802072 0.649825,-0.278498 1.563296,-0.278498 1.496458,0 2.250256,0.657254 0.7538,0.65354 0.794645,1.745249 l -1.604143,0.07055 q -0.103973,-0.60898 -0.441881,-0.876337 -0.337911,-0.27107 -1.013731,-0.27107 -0.698099,0 -1.09542,0.289637 -0.252504,0.18195 -0.252504,0.490155 0,0.282211 0.237651,0.482728 0.30449,0.256216 1.470464,0.531 1.169687,0.274784 1.730395,0.571848 0.560707,0.293351 0.876338,0.805786 0.319343,0.512434 0.319343,1.26252 0,0.683246 -0.378756,1.281085 -0.378756,0.594127 -1.073143,0.883764 -0.694385,0.289637 -1.726681,0.289637 -1.503885,0 -2.313383,-0.694385 -0.805784,-0.698099 -0.961742,-2.027458 z m 7.477232,-1.340501 q 0,-1.210534 0.360191,-2.034885 0.271069,-0.605266 0.738944,-1.087994 0.471589,-0.482728 1.028584,-0.712953 0.742658,-0.315631 1.708115,-0.315631 1.756387,0 2.80725,1.087997 1.054576,1.087993 1.054576,3.026333 0,1.923487 -1.047149,3.007768 -1.043437,1.084282 -2.792397,1.084282 -1.767528,0 -2.814677,-1.076855 -1.043437,-1.080567 -1.043437,-2.978062 z m 1.648702,-0.05199 q 0,1.347927 0.623834,2.046026 0.623833,0.694385 1.581863,0.694385 0.95803,0 1.570725,-0.690673 0.616407,-0.690672 0.616407,-2.072018 0,-1.362778 -0.597842,-2.034885 -0.597839,-0.672105 -1.58929,-0.672105 -0.991448,0 -1.600428,0.679531 -0.605269,0.679535 -0.605269,2.049739 z m 7.317445,3.973225 0,-7.935309 1.559584,0 3.245412,5.29887 0,-5.29887 1.489032,0 0,7.935309 -1.607858,0 -3.197138,-5.176332 0,5.176332 -1.489032,0 z" />
  <path
     style="fill:#efefef;fill-rule:nonzero"
     inkscape:connector-curvature="0"
     id="path37"
     d="m 20.37035,39.225147 0,-9.071577 6.216054,0 0,1.53359 -4.385401,0 0,2.146284 3.78756,0 0,1.537304 -3.78756,0 0,3.854399 -1.830653,0 z m 7.715471,0 0,-9.071577 1.737822,0 0,9.071577 -1.737822,0 z m 3.521097,-7.463722 0,-1.607855 1.737822,0 0,1.607855 -1.737822,0 z m 0,7.463722 0,-6.572531 1.737822,0 0,6.572531 -1.737822,0 z m 3.120063,-3.379098 q 0,-0.865196 0.42703,-1.674694 0.427028,-0.813213 1.20682,-1.240241 0.783502,-0.42703 1.748958,-0.42703 1.492744,0 2.443348,0.969171 0.954318,0.969169 0.954318,2.44706 0,1.492744 -0.961745,2.473054 -0.961742,0.98031 -2.421068,0.98031 -0.906044,0 -1.726678,-0.408463 -0.816925,-0.408462 -1.243953,-1.19568 -0.42703,-0.790931 -0.42703,-1.923487 z m 1.782382,0.09283 q 0,0.976595 0.464158,1.496456 0.464163,0.519861 1.143695,0.519861 0.679534,0 1.139982,-0.519861 0.464161,-0.519861 0.464161,-1.507597 0,-0.965457 -0.464161,-1.485318 -0.460448,-0.519861 -1.139982,-0.519861 -0.679532,0 -1.143695,0.519861 -0.464158,0.519861 -0.464158,1.496459 z m 5.524624,3.286264 2.369081,-3.386524 -2.268821,-3.186007 2.12029,0 1.165974,1.808376 1.225387,-1.808376 2.0386,0 -2.224265,3.111741 2.428495,3.46079 -2.131431,0 -1.336786,-2.034885 -1.351639,2.034885 -2.034885,0 z" />
</svg>
