<?xml version="1.0" encoding="UTF-8" standalone="no"?>
<svg
   xmlns:dc="http://purl.org/dc/elements/1.1/"
   xmlns:cc="http://creativecommons.org/ns#"
   xmlns:rdf="http://www.w3.org/1999/02/22-rdf-syntax-ns#"
   xmlns:svg="http://www.w3.org/2000/svg"
   xmlns="http://www.w3.org/2000/svg"
   xmlns:sodipodi="http://sodipodi.sourceforge.net/DTD/sodipodi-0.dtd"
   xmlns:inkscape="http://www.inkscape.org/namespaces/inkscape"
   version="1.0"
   width="1500"
   height="1000"
   viewBox="0 0 1200 800"
   preserveAspectRatio="xMidYMid meet"
   id="svg2"
   inkscape:version="0.91 r13725"
   sodipodi:docname="paint-splatter-docs.svg">
  <defs
     id="defs1260" />
  <sodipodi:namedview
     pagecolor="#ffffff"
     bordercolor="#666666"
     borderopacity="1"
     objecttolerance="10"
     gridtolerance="10"
     guidetolerance="10"
     inkscape:pageopacity="0"
     inkscape:pageshadow="2"
     inkscape:window-width="2560"
     inkscape:window-height="1346"
     id="namedview1258"
     showgrid="false"
     inkscape:zoom="0.78830898"
     inkscape:cx="862.10089"
     inkscape:cy="599.2952"
     inkscape:window-x="-11"
     inkscape:window-y="-11"
     inkscape:window-maximized="1"
     inkscape:current-layer="svg2"
     units="px" />
  <metadata
     id="metadata4">
Created by potrace 1.15, written by Peter Selinger 2001-2017
<rdf:RDF>
  <cc:Work
     rdf:about="">
    <dc:format>image/svg+xml</dc:format>
    <dc:type
       rdf:resource="http://purl.org/dc/dcmitype/StillImage" />
    <dc:title></dc:title>
  </cc:Work>
</rdf:RDF>
</metadata>
  <path
     style="fill:#8ab84c;fill-opacity:1;stroke:none"
     inkscape:connector-curvature="0"
     id="path80"
     d="m 203.23268,50.360322 c 0,0.744803 1.36547,3.724015 3.10334,6.703227 1.73788,2.979212 2.73095,5.586022 2.23442,5.83429 -2.60681,1.61374 -9.1859,2.110275 -11.29618,0.993071 -1.61375,-0.868937 -2.73095,-0.868937 -3.84815,0.248268 -1.1172,1.117204 -1.98614,1.117204 -3.84815,-0.124135 -2.85507,-1.737873 -4.96536,-1.986141 -4.96536,-0.372401 0,0.620669 1.73788,1.737873 3.84815,2.482677 2.11028,0.744803 3.59988,1.986141 3.35162,2.855077 -0.86894,2.482678 -6.2067,4.717087 -10.30311,4.468819 -2.97922,-0.372401 -3.84814,-0.993071 -4.34468,-3.972283 -0.3724,-1.986141 -1.36548,-3.848149 -2.11027,-4.22055 -2.73095,-0.868937 -1.73788,3.599881 2.11027,9.310037 3.47575,5.089488 3.59988,5.710157 1.862,8.192833 -2.73094,3.848151 -2.35854,7.199761 1.24134,11.296181 1.73787,1.98614 3.10335,4.09641 3.10335,4.59295 0,2.979207 18.86834,8.689357 20.35794,6.206697 0.49654,-0.74481 3.22749,-1.36548 6.08256,-1.36548 2.85508,0 6.82737,-0.86894 8.68938,-1.86201 3.10334,-1.61374 3.47575,-1.61374 4.09641,0.37241 1.862,6.08255 5.83429,12.66165 8.68937,14.52365 2.48268,1.61373 2.85508,2.35854 1.73787,3.84815 -0.86893,0.86894 -1.24133,2.60681 -0.7448,3.59988 0.99307,2.60681 4.59295,2.35855 5.33775,-0.49654 0.86894,-3.47574 10.05484,-4.34468 13.1582,-1.1172 5.58602,5.71015 14.15124,-1.73788 9.80656,-8.68937 -0.62066,-0.86893 -0.49653,-4.22054 0.12414,-7.57216 1.61373,-7.323897 -0.12414,-12.165107 -5.83429,-17.254597 -3.35162,-2.97921 -3.97228,-4.220553 -3.47575,-7.820434 0.3724,-3.475748 -0.24827,-4.84122 -3.72402,-8.316967 -3.59988,-3.351613 -4.84121,-3.848149 -8.0687,-3.22748 -5.83428,1.117204 -9.31003,5.586023 -9.31003,11.66858 0.12413,2.979212 -0.37241,4.717091 -1.1172,4.220551 -0.74481,-0.3724 -1.11722,-2.234409 -0.86894,-4.096416 0.12413,-1.862008 -0.86894,-4.965353 -2.35855,-6.951495 -1.36546,-2.110276 -2.73094,-4.84122 -2.97921,-6.206692 -0.3724,-1.986141 -1.36547,-2.358542 -4.34468,-2.110276 -4.34469,0.496536 -6.20669,-1.365472 -11.04791,-10.675509 -3.35162,-6.579093 -4.34469,-7.572164 -4.34469,-4.965353 z" />
  <path
     style="fill:#fae938;stroke:none;fill-opacity:1"
     inkscape:connector-curvature="0"
     id="path102"
     d="m 212.59267,122.06367 c -1.1172,0.24827 -3.47575,2.85508 -5.46189,5.71015 -2.73094,4.22056 -3.22747,6.08256 -2.73094,9.80658 1.1172,6.57909 4.96535,12.53752 8.4411,12.78578 1.61373,0.24828 4.59295,0.99307 6.82736,1.98615 3.47575,1.36547 4.59295,1.36547 8.31696,-0.49654 8.31698,-3.84814 11.04792,-12.90991 6.45496,-21.72342 -3.35161,-6.57909 -13.65472,-10.30311 -21.84755,-8.0687 z" />
  <path
     style="fill:#f7c024;fill-opacity:1;stroke:none"
     inkscape:connector-curvature="0"
     id="path130"
     d="m 496.64962,11.188971 c -2.73094,1.61374 -6.08256,3.103347 -7.32389,3.103347 -5.21363,0 -13.40646,5.337754 -16.88221,10.675509 -3.97228,6.206691 -5.71015,14.771926 -3.59988,17.378736 0.7448,0.868938 0.99307,2.110275 0.62067,2.730945 -0.37241,0.620669 0.86894,3.599881 2.85508,6.703228 8.0687,12.66165 25.57156,14.647792 36.61947,4.096416 7.44804,-7.199763 8.93764,-17.999407 4.09642,-28.550783 -1.61374,-3.475746 -2.73094,-6.951494 -2.35854,-7.82043 0.86893,-2.730945 -2.23441,-8.565236 -5.46189,-10.0548416 -3.84815,-1.7378739 -2.73094,-1.8620069 -8.56523,1.7378736 z" />
  <path
     style="fill:#df542a;stroke:none;fill-opacity:1"
     inkscape:connector-curvature="0"
     id="path136"
     d="m 584.59078,8.6672296 c -0.37241,0.993071 -0.12414,2.4826764 0.62066,3.2274804 1.98614,1.986141 5.21363,0.248266 5.21363,-2.7309454 0,-2.979212 -4.71709,-3.475747 -5.83429,-0.496535 z" />
  <path
     style="fill:#009fcc;stroke:none;fill-opacity:1"
     inkscape:connector-curvature="0"
     id="path138"
     d="m 744.59929,8.1706946 c -0.86894,0.868936 -1.48961,2.4826774 -1.48961,3.7240154 0,2.855077 3.35162,9.682438 4.84123,9.682438 1.862,0 3.84814,-3.22748 4.59295,-7.44803 0.7448,-3.227479 0.37239,-4.4688174 -1.36548,-5.8342894 -2.85508,-1.986142 -4.59295,-2.110276 -6.57909,-0.124134 z" />
  <path
     style="fill:#009fcc;stroke:none;fill-opacity:1"
     inkscape:connector-curvature="0"
     id="path140"
     d="m 786.80479,11.770575 c 0.24827,0.744803 0.99307,1.241339 1.61375,1.241339 0.62066,0 1.36546,-0.496536 1.61373,-1.241339 0.24827,-0.744802 -0.49653,-1.365471 -1.61373,-1.365471 -1.11722,0 -1.86201,0.620669 -1.61375,1.365471 z" />
  <path
     style="fill:#522b79;stroke:none;fill-opacity:1"
     inkscape:connector-curvature="0"
     id="path144"
     d="m 1184.1572,13.756716 c -0.8689,0.248268 -1.6137,1.986142 -1.6137,3.599882 0,2.730943 0.4965,3.103346 3.4757,2.730943 2.6068,-0.248266 3.3516,-0.99307 3.3516,-3.475746 0,-2.979212 -2.1102,-4.220551 -5.2136,-2.855079 z" />
  <path
     style="fill:#df542a;fill-opacity:1;stroke:none"
     inkscape:connector-curvature="0"
     id="path146"
     d="m 633.23197,13.885305 c -3.97229,1.862007 -8.0687,10.178974 -7.07563,14.399524 1.36546,5.586023 4.34468,8.937636 10.05483,11.29618 3.84815,1.737874 5.46189,3.103346 5.46189,4.841219 0,3.972283 5.95843,9.930707 11.29619,11.29618 4.22054,1.117204 5.71015,0.99307 9.5583,-0.993071 7.94456,-4.096417 9.43417,-7.572164 8.56524,-20.109682 -0.24828,-3.227479 -0.86894,-4.22055 -2.23442,-3.972283 -1.1172,0.124134 -3.59988,-0.620668 -5.58602,-1.613739 -1.98614,-0.993071 -4.84122,-1.862008 -6.33083,-1.862008 -1.73787,0 -2.85507,-0.744803 -2.85507,-1.862008 0,-3.599881 -3.72402,-9.310037 -7.44803,-11.172045 -4.22055,-2.110275 -9.31004,-2.234408 -13.40645,-0.248267 z" />
  <path
     style="fill:#009fcc;stroke:none;fill-opacity:1"
     inkscape:connector-curvature="0"
     id="path148"
     d="m 518.42744,20.335809 c 0,0.62067 0.62067,1.241339 1.24135,1.241339 0.74479,0 1.24133,-0.620669 1.24133,-1.241339 0,-0.744802 -0.49654,-1.241338 -1.24133,-1.241338 -0.62068,0 -1.24135,0.496536 -1.24135,1.241338 z" />
  <path
     style="fill:#522b79;stroke:none;fill-opacity:1"
     inkscape:connector-curvature="0"
     id="path152"
     d="m 1141.8276,23.687423 c 0.2483,1.241338 1.2414,2.234409 2.2344,2.234409 2.7309,0 2.2344,-3.599881 -0.3724,-4.096416 -1.7378,-0.372402 -2.2344,0.124133 -1.862,1.862007 z" />
  <path
     style="fill:#df542a;stroke:none;fill-opacity:1"
     inkscape:connector-curvature="0"
     id="path154"
     d="m 313.92264,13.539118 c -0.37239,0.620669 -0.24826,1.862008 0.37241,2.730945 1.24134,2.110275 5.33775,0.744802 4.71708,-1.489607 -0.7448,-1.862007 -4.22055,-2.730944 -5.08949,-1.241338 z" />
  <path
     style="fill:#8ab84c;fill-opacity:1;stroke:none"
     inkscape:connector-curvature="0"
     id="path158"
     d="m 330.30976,107.18889 c -2.73094,2.73094 -1.73787,7.07563 1.61375,7.94456 3.84814,0.99307 9.31003,-0.3724 9.31003,-2.23441 0,-0.7448 0.99307,-2.48267 2.23441,-3.84815 1.98614,-2.35854 1.98614,-2.48267 -0.62067,-1.862 -1.61374,0.49653 -3.22747,0.24826 -3.59988,-0.37241 -0.99307,-1.61373 -7.19976,-1.36547 -8.93764,0.37241 z" />
  <path
     style="fill:#000000;stroke:none"
     inkscape:connector-curvature="0"
     id="path162"
     d="m 943.58584,30.266516 c -0.37237,0.620669 -0.12412,1.241339 0.49649,1.241339 0.74483,0 1.36555,-0.62067 1.36555,-1.241339 0,-0.744803 -0.24835,-1.241338 -0.4966,-1.241338 -0.37236,0 -0.99308,0.496535 -1.36544,1.241338 z" />
  <path
     style="fill:#522b79;stroke:none;fill-opacity:1"
     inkscape:connector-curvature="0"
     id="path164"
     d="m 1077.8986,29.769981 c -0.4964,0.496535 -0.8689,1.986141 -0.8689,3.22748 0,1.737873 0.7448,2.358543 2.8551,1.986141 1.7378,-0.248268 2.7309,-1.241338 2.7309,-2.855078 0,-2.482677 -3.1034,-3.972283 -4.7171,-2.358543 z" />
  <path
     style="fill:#009fcc;stroke:none;fill-opacity:1"
     inkscape:connector-curvature="0"
     id="path166"
     d="m 701.64898,31.383721 c -0.49653,0.620669 -0.24827,1.489606 0.37241,1.862007 0.62066,0.496536 1.4896,0.248268 1.862,-0.372401 0.49653,-0.62067 0.24827,-1.489606 -0.3724,-1.862007 -0.62067,-0.496536 -1.4896,-0.248268 -1.86201,0.372401 z" />
  <path
     style="fill:#009fcc;stroke:none;fill-opacity:1"
     inkscape:connector-curvature="0"
     id="path168"
     d="m 529.59949,33.990532 c 0,0.620669 0.62066,1.241337 1.24134,1.241337 0.7448,0 1.24133,-0.620668 1.24133,-1.241337 0,-0.744804 -0.49653,-1.241339 -1.24133,-1.241339 -0.62068,0 -1.24134,0.496535 -1.24134,1.241339 z" />
  <path
     style="fill:#009fcc;stroke:none;fill-opacity:1"
     inkscape:connector-curvature="0"
     id="path170"
     d="m 619.59651,37.218011 c -2.2344,2.234409 -1.98614,4.096417 0.86894,5.83429 2.60681,1.737874 5.95843,0.248268 5.95843,-2.730944 0,-3.724015 -4.22055,-5.586023 -6.82737,-3.103346 z" />
  <path
     style="fill:#fae938;fill-opacity:1;stroke:none"
     inkscape:connector-curvature="0"
     id="path172"
     d="m 379.03157,17.293803 c -5.8343,1.241338 -7.6963,2.730944 -11.04791,9.558306 -2.60681,5.586022 -2.60681,5.710156 -0.37241,10.178973 1.36548,2.482677 3.22749,5.213621 4.22056,6.082559 1.4896,1.241338 1.1172,1.489605 -2.73095,1.613739 -6.57909,0 -10.55138,2.23441 -12.78578,7.075629 -1.73787,3.475747 -1.73787,4.841219 -0.37241,8.565234 1.61375,4.717087 7.57217,9.185904 12.04099,9.185904 10.05484,0 16.01326,-11.916848 9.93071,-19.613145 -2.48268,-3.22748 -2.48268,-3.351615 -0.24828,-3.724016 13.15819,-1.986141 16.50981,-5.337755 16.50981,-16.137399 0,-5.089486 -0.62067,-6.82736 -3.59988,-10.05484 -3.72403,-3.972283 -4.09642,-4.096417 -11.54445,-2.730944 z" />
  <path
     style="fill:#522b79;stroke:none;fill-opacity:1"
     inkscape:connector-curvature="0"
     id="path174"
     d="m 1044.1342,37.714547 c -0.3723,0.620669 -0.1241,1.241338 0.4965,1.241338 0.7448,0 1.3656,-0.620669 1.3656,-1.241338 0,-0.744803 -0.2484,-1.241339 -0.4966,-1.241339 -0.3724,0 -0.9931,0.496536 -1.3655,1.241339 z" />
  <path
     style="fill:#522b79;stroke:none;fill-opacity:1"
     inkscape:connector-curvature="0"
     id="path176"
     d="m 985.79138,40.073089 c -0.86896,1.489607 1.48956,2.979212 3.10325,1.986142 1.36556,-0.868937 0.4966,-3.103346 -1.24132,-3.103346 -0.62061,0 -1.36545,0.496535 -1.86193,1.117204 z" />
  <path
     style="fill:#df542a;fill-opacity:1;stroke:none"
     inkscape:connector-curvature="0"
     id="path180"
     d="m 685.05814,28.158725 c -0.74481,1.61374 -2.23442,3.351613 -3.10335,3.848149 -3.22748,1.862008 -1.24134,8.316967 2.60681,8.316967 0.86894,0 3.35162,-2.358543 5.58603,-5.089487 3.22747,-3.972282 3.84815,-5.586022 2.85508,-7.199762 -1.98615,-3.22748 -6.2067,-3.103346 -7.94457,0.124133 z" />
  <path
     style="fill:#000000;stroke:none"
     inkscape:connector-curvature="0"
     id="path182"
     d="m 162.16334,46.403915 c 0,0.620669 0.62067,1.241338 1.36547,1.241338 0.62067,0 0.86894,-0.620669 0.49653,-1.241338 -0.37239,-0.744803 -0.99307,-1.241338 -1.36546,-1.241338 -0.24828,0 -0.49654,0.496535 -0.49654,1.241338 z" />
  <path
     style="fill:#fae938;fill-opacity:1;stroke:none"
     inkscape:connector-curvature="0"
     id="path184"
     d="m 57.64265,47.769387 c -2.979209,1.737874 -2.855077,7.572164 0.248264,10.427242 5.586032,5.089488 13.654732,-2.234409 9.434178,-8.689368 -2.110272,-3.22748 -5.958429,-3.972282 -9.682442,-1.737874 z" />
  <path
     style="fill:#009fcc;stroke:none;fill-opacity:1"
     inkscape:connector-curvature="0"
     id="path186"
     d="m 707.73154,47.52112 c -0.74481,1.365472 1.1172,2.855077 2.35855,1.737873 1.1172,-1.117204 0.86893,-2.855078 -0.37241,-2.855078 -0.74481,0 -1.4896,0.496536 -1.98614,1.117205 z" />
  <path
     style="fill:#fae938;fill-opacity:1;stroke:none"
     inkscape:connector-curvature="0"
     id="path188"
     d="m 321.2139,30.451989 c -0.99307,2.358543 -0.99307,3.475747 0.24826,4.965353 3.47575,4.096416 10.92378,0.993071 9.06177,-3.848149 -1.862,-5.089488 -7.19976,-5.710156 -9.31003,-1.117204 z" />
  <path
     style="fill:#000000;stroke:none"
     inkscape:connector-curvature="0"
     id="path190"
     d="m 901.00792,55.217417 c 0.24827,0.868938 1.24134,1.862008 2.11028,2.110275 0.99307,0.372402 1.4896,-0.124133 1.1172,-1.117204 -0.24827,-0.868937 -1.24133,-1.862008 -2.11027,-2.110275 -0.99307,-0.372401 -1.48961,0.124134 -1.11721,1.117204 z" />
  <path
     style="fill:#000000;stroke:none"
     inkscape:connector-curvature="0"
     id="path192"
     d="m 333.3439,62.168912 c -2.35855,0.620669 -3.84815,4.592952 -2.73095,7.323896 0.86894,2.482677 6.2067,3.599881 8.4411,1.737874 2.60681,-2.234409 2.35855,-7.075629 -0.49653,-8.689369 -1.36548,-0.620669 -2.60681,-1.117204 -2.85508,-1.117204 -0.24827,0.124134 -1.24134,0.372402 -2.35854,0.744803 z" />
  <path
     style="fill:#e88196;fill-opacity:1;stroke:none"
     inkscape:connector-curvature="0"
     id="path194"
     d="m 576.89448,65.768793 c -1.48961,1.862008 -2.60681,3.724015 -2.60681,4.344684 0,2.730945 1.98614,5.337755 5.33775,6.703228 3.22749,1.365472 3.59988,2.110275 3.84815,7.448029 0.24827,7.696299 4.59295,11.792715 12.28925,11.792715 7.94457,-0.124134 12.04098,-4.468819 12.04098,-13.034053 0,-3.59988 -0.86894,-5.461888 -3.97228,-8.316967 -3.47575,-3.22748 -4.71708,-3.599881 -9.31003,-3.103345 -4.96536,0.496535 -5.33776,0.372401 -5.33776,-2.358543 0,-2.979212 -4.09642,-6.703228 -7.57217,-6.703228 -1.24133,0 -3.3516,1.489607 -4.71708,3.22748 z" />
  <path
     style="fill:#522b79;stroke:none;fill-opacity:1"
     inkscape:connector-curvature="0"
     id="path196"
     d="m 888.34626,64.527455 c 0,1.117205 0.86894,1.737874 2.11029,1.489606 3.10334,-0.620669 3.47575,-3.475748 0.49653,-3.475748 -1.4896,0 -2.60682,0.744804 -2.60682,1.986142 z" />
  <path
     style="fill:#000000;stroke:none"
     inkscape:connector-curvature="0"
     id="path198"
     d="m 294.98654,65.02399 c 0,0.62067 0.62067,1.241339 1.24134,1.241339 0.74481,0 1.24134,-0.620669 1.24134,-1.241339 0,-0.744802 -0.49653,-1.241338 -1.24134,-1.241338 -0.62067,0 -1.24134,0.496536 -1.24134,1.241338 z" />
  <path
     style="fill:#522b79;stroke:none;fill-opacity:1"
     inkscape:connector-curvature="0"
     id="path200"
     d="m 894.18056,67.010132 c -1.1172,1.241338 0.24827,2.979212 2.35854,2.979212 0.99308,0 1.73787,-0.868937 1.73787,-1.862008 0,-1.862007 -2.6068,-2.606811 -4.09641,-1.117204 z" />
  <path
     style="fill:#000000;stroke:none"
     inkscape:connector-curvature="0"
     id="path202"
     d="m 774.14314,68.748005 c 0,0.620669 0.62067,1.241339 1.36547,1.241339 0.62067,0 0.86894,-0.62067 0.49654,-1.241339 -0.37241,-0.744803 -0.99307,-1.241338 -1.36548,-1.241338 -0.24826,0 -0.49653,0.496535 -0.49653,1.241338 z" />
  <path
     style="fill:#522b79;stroke:none;fill-opacity:1"
     inkscape:connector-curvature="0"
     id="path204"
     d="m 1047.7341,68.872139 c -1.2414,2.110275 1.6138,4.468818 3.3516,2.730945 1.4897,-1.489607 0.4966,-4.096417 -1.3655,-4.096417 -0.6206,0 -1.4895,0.620669 -1.9861,1.365472 z" />
  <path
     style="fill:#8ab84c;fill-opacity:1;stroke:none"
     inkscape:connector-curvature="0"
     id="path206"
     d="m 275.95054,74.895843 c -7.44803,9.310037 -2.11027,22.964758 8.93764,22.964758 6.33082,0 9.18591,-1.365472 11.79271,-5.586022 3.47575,-5.586023 3.10335,-10.427242 -0.99307,-15.392595 -2.97921,-3.599881 -4.46882,-4.344684 -10.3031,-4.717085 -6.08256,-0.62067 -6.9515,-0.372402 -9.43418,2.730944 z" />
  <path
     style="fill:#7d563a;fill-opacity:1;stroke:none"
     inkscape:connector-curvature="0"
     id="path208"
     d="m 444.94022,72.47202 c -2.97922,2.234409 -3.47575,3.599881 -3.47575,8.689369 0,5.213621 0.49653,6.454959 3.84814,9.185904 4.34469,3.724015 7.19977,3.972282 12.16512,1.365472 6.57909,-3.351613 8.0687,-13.654723 2.60681,-18.620076 -3.84815,-3.475747 -11.17205,-3.848148 -15.14432,-0.620669 z" />
  <path
     style="fill:#df542a;fill-opacity:1;stroke:none"
     inkscape:connector-curvature="0"
     id="path210"
     d="m 636.23045,74.08576 c -2.73094,1.737874 -4.84122,4.592952 -5.83429,7.696298 -5.33776,15.889131 18.86834,22.095822 25.19917,6.579094 2.73094,-6.827362 2.35854,-9.434172 -1.73788,-13.530588 -4.59295,-4.592952 -11.4203,-4.84122 -17.627,-0.744804 z" />
  <path
     style="fill:#fae938;fill-opacity:1;stroke:none"
     inkscape:connector-curvature="0"
     id="path212"
     d="m 404.10909,39.019708 c -3.84816,2.606811 -4.22056,3.475747 -4.59295,9.558305 -0.37241,6.330826 0,7.199763 3.84814,10.923778 l 4.22056,4.09642 5.46189,-2.110279 c 2.9792,-1.117204 6.08255,-2.730944 6.70322,-3.599881 0.7448,-0.744803 1.98614,-1.365472 2.85507,-1.117205 0.86894,0.124134 0.99307,0 0.24828,-0.372401 -0.7448,-0.372402 -0.99308,-2.234409 -0.49654,-4.717086 0.49654,-2.855078 0,-5.461888 -1.86201,-8.937636 -3.72401,-7.44803 -9.06177,-8.689368 -16.38566,-3.724015 z" />
  <path
     style="fill:#000000;stroke:none"
     inkscape:connector-curvature="0"
     id="path214"
     d="m 711.08316,75.6995 c 0.49652,2.60681 2.73094,2.855078 3.22747,0.124134 0.24827,-1.241338 -0.3724,-2.110276 -1.61373,-2.110276 -1.24135,0 -1.86201,0.744803 -1.61374,1.986142 z" />
  <path
     style="fill:#000000;stroke:none"
     inkscape:connector-curvature="0"
     id="path216"
     d="m 400.5003,76.816705 c 0,0.993071 0.86893,1.862007 1.862,1.862007 0.99308,0 1.86202,-0.868936 1.86202,-1.862007 0,-0.993071 -0.86894,-1.862008 -1.86202,-1.862008 -0.99307,0 -1.862,0.868937 -1.862,1.862008 z" />
  <path
     style="fill:#000000;stroke:none"
     inkscape:connector-curvature="0"
     id="path218"
     d="m 58.759852,77.933909 c -0.372397,0.993071 0.124143,2.482677 1.117212,3.351613 1.489599,1.241339 2.234404,1.117206 3.848146,-0.372401 0.99307,-1.117204 1.48961,-2.606811 1.117202,-3.351613 -1.241334,-1.986142 -5.337756,-1.737874 -6.08256,0.372401 z" />
  <path
     style="fill:#000000;stroke:none"
     inkscape:connector-curvature="0"
     id="path220"
     d="m 703.38685,79.92005 c 0,0.62067 0.86894,1.241339 1.86201,1.241339 0.99307,0 1.86201,-0.620669 1.86201,-1.241339 0,-0.744802 -0.86894,-1.241338 -1.86201,-1.241338 -0.99307,0 -1.86201,0.496536 -1.86201,1.241338 z" />
  <path
     style="fill:#000000;stroke:none"
     inkscape:connector-curvature="0"
     id="path222"
     d="m 681.29104,83.892333 c -2.23442,2.234409 -1.73788,3.475748 0.99307,3.475748 1.36546,0 2.48267,-0.744804 2.48267,-1.737875 0,-2.60681 -1.862,-3.351613 -3.47574,-1.737873 z" />
  <path
     style="fill:#000000;stroke:none"
     inkscape:connector-curvature="0"
     id="path224"
     d="m 700.03525,86.747412 c -2.35855,4.841218 -0.86894,8.068698 3.84814,8.068698 5.83429,0 7.82044,-7.075628 2.97921,-10.427241 -3.84814,-2.730945 -4.46882,-2.606811 -6.82735,2.358543 z" />
  <path
     style="fill:#000000;stroke:none"
     inkscape:connector-curvature="0"
     id="path226"
     d="m 777.86716,83.644065 c 0,0.620669 0.62067,1.241339 1.24133,1.241339 0.74481,0 1.24135,-0.62067 1.24135,-1.241339 0,-0.744803 -0.49654,-1.241337 -1.24135,-1.241337 -0.62066,0 -1.24133,0.496534 -1.24133,1.241337 z" />
  <path
     style="fill:#8ab84c;fill-opacity:1;stroke:none"
     inkscape:connector-curvature="0"
     id="path230"
     d="m 936.51016,85.009537 c -1.24133,0.620669 -2.23441,2.234409 -2.23441,3.599881 0,1.241339 -1.61369,3.972283 -3.72397,5.958424 -4.59293,4.717087 -4.71705,8.813498 -0.49659,13.778858 2.48275,2.97921 4.22056,3.84815 7.57217,3.84815 8.31701,0 15.26846,-11.54445 9.55833,-16.261535 -1.24132,-0.99307 -1.61369,-2.60681 -1.1172,-4.592951 1.36544,-5.586023 -4.46881,-9.434172 -9.55833,-6.330827 z" />
  <path
     style="fill:#000000;stroke:none"
     inkscape:connector-curvature="0"
     id="path232"
     d="m 1080.7538,87.368081 c 0,0.620669 0.4964,1.241337 1.1172,1.241337 0.7447,0 1.6136,-0.620668 1.986,-1.241337 0.3725,-0.744804 -0.1241,-1.241339 -1.1172,-1.241339 -1.1172,0 -1.986,0.496535 -1.986,1.241339 z" />
  <path
     style="fill:#000000;stroke:none"
     inkscape:connector-curvature="0"
     id="path234"
     d="m 762.35043,88.609418 c -0.37241,0.62067 -0.12413,1.241339 0.49653,1.241339 0.7448,0 1.36548,-0.620669 1.36548,-1.241339 0,-0.744802 -0.24828,-1.241337 -0.49654,-1.241337 -0.3724,0 -0.99307,0.496535 -1.36547,1.241337 z" />
  <path
     style="fill:#fae938;fill-opacity:1;stroke:none"
     inkscape:connector-curvature="0"
     id="path236"
     d="m 144.53634,89.974891 c -2.73096,1.613739 -2.97922,7.696298 -0.24828,10.303109 4.22056,4.22055 10.42725,0.99307 10.42725,-5.46189 0,-5.213621 -5.33776,-7.696297 -10.17897,-4.841219 z" />
  <path
     style="fill:#8ab84c;fill-opacity:1;stroke:none"
     inkscape:connector-curvature="0"
     id="path238"
     d="m 717.41398,89.478356 c -1.98614,0.744802 -2.11028,4.344684 -0.12413,6.330825 1.1172,1.117205 1.1172,1.489606 0,1.489606 -2.85508,0 -7.6963,5.958423 -7.6963,9.434173 0,3.22748 3.97228,8.0687 7.94456,9.55831 5.08949,1.98614 11.91685,-3.84816 11.91685,-10.17898 0,-2.97921 -4.59295,-8.813503 -6.9515,-8.813503 -1.36547,0 -1.4896,-0.496535 -0.24826,-2.358542 1.1172,-1.862008 1.1172,-2.855079 -0.12414,-4.344685 -1.73787,-2.110275 -2.2344,-2.234408 -4.71708,-1.117204 z" />
  <path
     style="fill:#009fcc;stroke:none;fill-opacity:1"
     inkscape:connector-curvature="0"
     id="path240"
     d="m 808.15581,90.347293 c -1.24134,3.227479 0.49654,5.958424 3.47575,5.461888 2.11028,-0.248268 2.85507,-1.241339 2.85507,-3.475747 0,-2.234409 -0.74479,-3.22748 -2.85507,-3.475748 -1.61374,-0.248268 -3.10335,0.372402 -3.47575,1.489607 z" />
  <path
     style="fill:#df542a;fill-opacity:1;stroke:none"
     inkscape:connector-curvature="0"
     id="path242"
     d="m 369.46684,92.333434 c -4.96536,4.965353 -1.48961,12.661646 5.71015,12.661646 6.82737,0 9.68245,-8.56523 4.22056,-12.909914 -3.59988,-2.855078 -6.82737,-2.855078 -9.93071,0.248268 z" />
  <path
     style="fill:#000000;stroke:none"
     inkscape:connector-curvature="0"
     id="path244"
     d="m 737.77192,91.58863 c -0.86893,2.110276 2.23442,4.965354 4.09642,3.84815 0.62068,-0.372402 1.24134,-1.862008 1.24134,-3.22748 0,-2.855078 -4.34468,-3.351614 -5.33776,-0.62067 z" />
  <path
     style="fill:#000000;stroke:none"
     inkscape:connector-curvature="0"
     id="path246"
     d="m 386.47318,91.836898 c -0.49654,0.496536 -0.86894,1.986142 -0.86894,3.22748 0,1.61374 0.86894,2.234409 3.22747,2.234409 2.60682,0 3.10336,-0.496535 2.73095,-2.730945 -0.3724,-2.855077 -3.35161,-4.344684 -5.08948,-2.730944 z" />
  <path
     style="fill:#000000;stroke:none"
     inkscape:connector-curvature="0"
     id="path248"
     d="m 879.2845,94.071308 c -0.86894,2.234409 0.12413,3.227479 3.10335,3.227479 1.61374,0 2.2344,-0.744803 1.98614,-2.110275 -0.49654,-2.730944 -4.22056,-3.599882 -5.08949,-1.117204 z" />
  <path
     style="fill:#fae938;fill-opacity:1;stroke:none"
     inkscape:connector-curvature="0"
     id="path250"
     d="m 83.834888,96.305717 c -1.241334,2.234409 -0.993069,2.979212 0.868938,4.344683 2.606811,1.86201 4.220553,1.61374 5.958428,-1.117203 0.868937,-1.489607 0.744805,-2.606811 -0.372408,-3.972284 -2.358536,-2.730944 -4.717083,-2.482676 -6.454958,0.744804 z" />
  <path
     style="fill:#000000;stroke:none"
     inkscape:connector-curvature="0"
     id="path252"
     d="m 703.88339,97.422921 c -1.24134,2.110276 1.61374,4.468819 3.35162,2.730939 1.4896,-1.4896 0.49653,-4.096411 -1.36548,-4.096411 -0.62067,0 -1.48961,0.620669 -1.98614,1.365472 z" />
  <path
     style="fill:#000000;stroke:none"
     inkscape:connector-curvature="0"
     id="path254"
     d="m 763.7159,99.284929 c -2.97921,2.855081 -3.22748,3.475751 -1.61374,5.089491 1.4896,1.4896 2.23441,1.4896 4.22055,0.24826 4.96536,-2.97921 6.45496,-8.565231 2.48268,-8.565231 -0.86894,0 -3.10335,1.489606 -5.08949,3.22748 z" />
  <path
     style="fill:#000000;stroke:none"
     inkscape:connector-curvature="0"
     id="path256"
     d="m 1150.2687,99.781464 c 0,0.620666 0.6207,1.241336 1.2413,1.241336 0.7448,0 1.2414,-0.62067 1.2414,-1.241336 0,-0.744803 -0.4966,-1.241338 -1.2414,-1.241338 -0.6206,0 -1.2413,0.496535 -1.2413,1.241338 z" />
  <path
     style="fill:#000000;stroke:none"
     inkscape:connector-curvature="0"
     id="path258"
     d="m 897.2839,102.51241 c -4.09641,4.09642 0.12413,9.68244 5.8343,7.82043 2.97921,-0.86894 3.84814,-2.97921 2.48268,-6.57909 -1.11722,-2.97922 -5.8343,-3.72402 -8.31698,-1.24134 z" />
  <path
     style="fill:#000000;stroke:none"
     inkscape:connector-curvature="0"
     id="path260"
     d="m 754.90239,104.00201 c -2.48267,1.86201 -1.862,5.71016 0.99308,5.71016 2.48267,0 4.96535,-3.35161 4.09641,-5.58602 -0.86893,-2.35855 -2.11027,-2.35855 -5.08949,-0.12414 z" />
  <path
     style="fill:#7d563a;fill-opacity:1;stroke:none"
     inkscape:connector-curvature="0"
     id="path262"
     d="m 439.10592,106.73296 c -3.35162,4.34468 -3.22747,7.32389 0.49654,11.04791 5.83429,5.95843 14.27539,2.35854 14.27539,-5.95842 0,-8.19284 -9.68244,-11.54445 -14.77193,-5.08949 z" />
  <path
     style="fill:#000000;stroke:none"
     inkscape:connector-curvature="0"
     id="path264"
     d="m 635.98219,108.96737 c -0.37241,0.99307 0.12413,2.48267 1.1172,3.35161 1.4896,1.24134 2.2344,1.1172 3.84815,-0.3724 0.99307,-1.1172 1.48961,-2.60681 1.1172,-3.35161 -1.24134,-1.98614 -5.33776,-1.73788 -6.08255,0.3724 z" />
  <path
     style="fill:#fae938;fill-opacity:1;stroke:none"
     inkscape:connector-curvature="0"
     id="path266"
     d="m 567.21204,109.71217 c -2.23441,0.49654 -4.84122,1.61374 -5.83429,2.48268 -3.59988,2.97921 -6.82736,11.79271 -7.07563,19.48901 -0.24826,8.0687 1.24134,11.54445 4.96535,11.54445 1.11721,0 4.34469,0.86892 7.19976,1.86201 13.53059,4.71708 29.29559,-6.33083 27.06118,-19.11662 -1.36547,-8.4411 -3.22748,-11.29617 -8.8135,-13.77885 -6.33082,-2.97921 -12.04099,-3.72402 -17.50287,-2.48268 z" />
  <path
     style="fill:#000000;stroke:none"
     inkscape:connector-curvature="0"
     id="path268"
     d="m 883.25678,111.20178 c -0.86893,4.22055 -0.86893,11.66858 0.24827,12.90991 0.7448,0.86894 3.35162,1.98615 5.95843,2.48268 2.48267,0.3724 5.71015,1.61374 7.32389,2.60681 3.72402,2.2344 7.44803,0.99307 8.4411,-2.85507 0.99307,-3.97229 -0.86894,-5.95843 -9.31004,-9.93071 -3.84814,-1.86201 -7.94456,-3.84815 -9.06176,-4.34469 -2.23442,-1.1172 -3.47575,-1.36547 -3.59989,-0.86893 z" />
  <path
     style="fill:#000000;stroke:none"
     inkscape:connector-curvature="0"
     id="path270"
     d="m 832.48604,115.2982 c 0,0.99307 0.62067,1.86201 1.24134,1.86201 0.74481,0 1.24134,-0.86894 1.24134,-1.86201 0,-0.99308 -0.49653,-1.86202 -1.24134,-1.86202 -0.62067,0 -1.24134,0.86894 -1.24134,1.86202 z" />
  <path
     style="fill:#000000;stroke:none"
     inkscape:connector-curvature="0"
     id="path272"
     d="m 211.81687,119.64287 c 0,0.62068 0.62067,1.24135 1.24133,1.24135 0.74481,0 1.24135,-0.62067 1.24135,-1.24135 0,-0.74479 -0.49654,-1.24133 -1.24135,-1.24133 -0.62066,0 -1.24133,0.49654 -1.24133,1.24133 z" />
  <path
     style="fill:#009fcc;fill-opacity:1;stroke:none"
     inkscape:connector-curvature="0"
     id="path274"
     d="m 899.31288,20.658072 c -15.02011,6.330825 -19.61315,20.233816 -10.55131,31.902391 5.33777,6.703228 12.1651,9.434172 20.73036,8.0687 11.91685,-1.862008 18.62006,-11.66858 16.75802,-24.330227 -0.74483,-4.84122 -1.86203,-6.951496 -6.20672,-11.047912 -4.46881,-4.344684 -6.33074,-5.213622 -11.17202,-5.710157 -3.22748,-0.248267 -7.44805,0.248267 -9.55833,1.117205 z" />
  <path
     style="fill:#000000;stroke:none"
     inkscape:connector-curvature="0"
     id="path276"
     d="m 639.7062,121.62902 c -0.99307,0.99307 0.12413,2.97921 1.73788,2.97921 0.62066,0 1.1172,-0.86893 1.1172,-1.862 0,-1.86201 -1.48961,-2.48268 -2.85508,-1.11721 z" />
  <path
     style="fill:#000000;stroke:none"
     inkscape:connector-curvature="0"
     id="path278"
     d="m 750.06118,122.87036 c -1.1172,0.99307 -1.98614,2.2344 -1.98614,2.73094 0.12413,4.71708 7.82043,5.21362 8.44109,0.62067 0.49654,-3.72401 -3.84814,-6.08256 -6.45495,-3.35161 z" />
  <path
     style="fill:#df542a;stroke:none;fill-opacity:1"
     inkscape:connector-curvature="0"
     id="path280"
     d="m 429.29935,123.61516 c -3.59989,3.59988 -0.12414,9.68243 5.46188,9.68243 3.97229,0 6.33083,-4.71708 4.34469,-8.56522 -1.61374,-2.85508 -7.32389,-3.59989 -9.80657,-1.11721 z" />
  <path
     style="fill:#fae938;fill-opacity:1;stroke:none"
     inkscape:connector-curvature="0"
     id="path282"
     d="m 762.47456,126.09784 c -3.22748,4.46881 -2.48268,10.55137 1.61375,14.77192 6.33082,6.20669 15.02018,3.59988 15.02018,-4.59295 0,-5.08949 -2.73094,-11.0479 -5.58602,-12.16512 -4.34468,-1.61373 -9.1859,-0.7448 -11.04791,1.98615 z" />
  <path
     style="fill:#000000;stroke:none"
     inkscape:connector-curvature="0"
     id="path284"
     d="m 121.69571,126.47024 c -1.1172,2.85507 0.37241,5.58602 3.10335,5.58602 2.85507,0 4.34467,-3.47575 2.48267,-5.71015 -1.86201,-2.23442 -4.71709,-2.23442 -5.58602,0.12413 z" />
  <path
     style="fill:#000000;stroke:none"
     inkscape:connector-curvature="0"
     id="path384"
     d="m 1019.8176,90.989523 c 0,0.62067 0.869,1.241339 1.8621,1.241339 0.993,0 1.862,-0.620669 1.862,-1.241339 0,-0.744802 -0.869,-1.241337 -1.862,-1.241337 -0.9931,0 -1.8621,0.496535 -1.8621,1.241337 z" />
  <path
     style="fill:#fae938;fill-opacity:1;stroke:none"
     inkscape:connector-curvature="0"
     id="path396"
     d="m 549.02274,32.656555 c -4.3128,3.47575 -5.52344,13.77886 -2.26989,19.48901 2.19424,3.84816 4.84247,5.21363 8.4743,4.09642 4.76686,-1.48961 7.1124,-11.79271 4.31287,-19.36488 -2.1942,-6.082554 -6.2044,-7.696294 -10.51728,-4.22055 z" />
  <path
     style="fill:#000000;stroke:none"
     inkscape:connector-curvature="0"
     id="path422"
     d="m 1011.8731,119.66444 c -4.3447,3.47575 -4.4688,9.93071 -0.1241,14.15125 5.8342,5.95843 14.896,2.60681 16.2615,-5.83429 1.4896,-8.93763 -8.6894,-14.15125 -16.1374,-8.31696 z" />
  <path
     style="fill:#522b79;fill-opacity:1;stroke:none"
     inkscape:connector-curvature="0"
     id="path574"
     d="m 819.9344,20.03954 c -1.48961,1.61374 -2.73095,4.344684 -2.73095,6.082558 0,2.358543 -1.1172,3.848148 -4.09642,5.586023 -2.48268,1.489605 -4.09641,3.475747 -4.22054,5.337755 -0.37241,4.717085 -2.11028,5.213621 -6.5791,1.862007 -3.10334,-2.234409 -5.83429,-3.103346 -9.93071,-3.103346 -6.70322,0 -10.79964,2.482677 -13.15818,8.192834 -2.35854,5.710156 -2.23441,9.682436 0.7448,15.64086 1.36547,2.855079 2.48268,5.834291 2.48268,6.703227 0,0.744804 1.1172,2.730945 2.48268,4.468818 1.61374,2.234409 1.98613,3.475748 0.99307,4.468819 -0.62068,0.620668 -0.86894,1.862007 -0.49653,2.60681 1.24133,1.986142 4.46881,1.737874 4.46881,-0.372402 0,-0.993071 1.98614,-1.986141 4.84122,-2.482676 5.33776,-0.868937 9.5583,-4.965354 10.79964,-10.551376 1.48961,-6.827361 1.86201,-7.075629 3.97228,-3.475748 2.23442,3.848149 8.44111,7.572164 14.52366,8.813503 10.92378,2.234409 24.2061,-9.806574 24.2061,-21.971686 0,-5.213622 -6.95149,-15.144328 -12.04098,-17.13047 -1.73787,-0.620669 -2.85508,-2.110276 -2.85508,-3.599881 0,-8.689369 -7.94456,-12.909918 -13.40645,-7.075629 z" />
  <path
     style="fill:#009fcc;fill-opacity:1;stroke:none"
     inkscape:connector-curvature="0"
     id="path724"
     d="m 933.20005,16.260895 c -1.61374,1.61374 -2.85508,3.35161 -2.85508,3.84815 0,0.49653 -0.86894,1.61373 -1.98614,2.48267 -4.84122,3.47575 2.35854,18.62008 11.66858,24.2061 2.23441,1.36548 3.97229,3.22748 3.97229,4.22055 0,0.99307 1.4896,3.47575 3.22747,5.58602 2.73094,3.35162 3.97229,3.84815 9.43418,3.84815 5.21361,0 6.70322,-0.62066 9.80656,-3.59988 3.22748,-3.22747 3.59988,-4.46882 3.47575,-10.05484 -0.24827,-7.19976 -1.86201,-9.31003 -7.3239,-10.55138 -3.47574,-0.74479 -3.72401,-1.1172 -3.72401,-6.57909 0,-7.69629 -4.34469,-14.52366 -10.05484,-15.64086 -7.82043,-1.48961 -12.78578,-0.86894 -15.64086,2.23441 z" />
  <path
     style="fill:#009fcc;stroke:none;fill-opacity:1"
     inkscape:connector-curvature="0"
     id="path870"
     d="m 1100.3325,55.33092 c -0.9931,2.23442 -0.8689,3.72402 0.6207,6.70324 1.1172,2.11027 1.9861,4.59295 1.9861,5.58602 0,0.99307 0.8689,2.48268 1.862,3.35161 0.9931,0.86894 2.1103,3.47575 2.4827,6.08255 1.7379,9.93071 2.1103,11.29619 5.4619,15.14433 2.8551,3.22749 4.3447,3.84815 8.5652,3.84815 10.6755,-0.12413 14.1513,-5.58602 13.2823,-20.85448 -0.6206,-10.42724 -1.6137,-12.78579 -5.0894,-12.90992 -0.7449,0 -2.1103,0.86894 -2.9793,1.86201 -0.8689,0.99307 -2.3585,1.862 -3.3516,1.862 -3.4757,0 -9.0617,-4.22055 -9.0617,-6.82735 -0.1242,-4.34469 -2.9793,-6.82737 -7.9446,-6.82737 -3.5999,0 -4.8412,0.62068 -5.8343,2.97921 z" />
  <path
     style="fill:#fae938;fill-opacity:1;stroke:none"
     inkscape:connector-curvature="0"
     id="path120-3"
     d="m 257.24196,27.274797 c -1.73787,1.73787 -1.862,5.83428 -0.3724,8.192831 1.73787,2.855079 6.57909,1.241329 7.94456,-2.606811 1.86201,-5.58602 -3.59988,-9.55831 -7.57216,-5.58602 z" />
  <path
     style="fill:#fae938;fill-opacity:1;stroke:none"
     inkscape:connector-curvature="0"
     id="path128-3"
     d="m 269.70032,21.249125 c -2.11028,5.08948 -0.24827,7.82042 5.21362,7.82042 3.84814,0 4.22055,-0.37239 4.22055,-3.59988 0,-2.73094 -0.86893,-4.09641 -3.97229,-5.834279 l -3.84814,-2.234421 -1.61374,3.84816 z" />
  <path
     style="fill:#fae938;fill-opacity:1;stroke:none"
     inkscape:connector-curvature="0"
     id="path378-4"
     d="m 253.70848,56.462635 c -2.97921,2.97921 -3.10334,5.95842 -0.49653,9.68244 3.84814,5.46188 12.90991,1.98615 12.90991,-4.96535 0,-2.97922 -4.34468,-7.19976 -7.44802,-7.19976 -1.36548,0 -3.59989,1.1172 -4.96536,2.48267 z" />
</svg>
